TranscodeFile.buildPaths> Found Other Videos file: D:\Temp\Brave\La Lune-short.mkv
buildSRTFileList> searchFile (La Lune-short.5.srt) matches regex: La Lune-short(.*).srt
TranscodeFile> theMP4FileName: La Lune-short.mp4, mkvFinalDirectory: D:\Temp\Brave\, mp4OutputDirectory: D:\Temp\, mp4FinalDirectory: D:\Temp\, length: 1575095292
processFile> Processing: La Lune-short.mkv
processFile> Execute ffprobe command: "D:\Program Files\ffmpeg\bin\ffprobe" -v quiet -show_streams -print_format json -i "D:\Temp\Brave\La Lune-short.mkv"
processFile:1> {
processFile:2>     "streams": [
processFile:3>         {
processFile:4>             "index": 0,
processFile:5>             "codec_name": "h264",
processFile:6>             "codec_long_name": "H.264 / AVC / MPEG-4 AVC / MPEG-4 part 10",
processFile:7>             "profile": "High",
processFile:8>             "codec_type": "video",
processFile:9>             "codec_tag_string": "[0][0][0][0]",
processFile:10>             "codec_tag": "0x0000",
processFile:11>             "width": 1920,
processFile:12>             "height": 1080,
processFile:13>             "coded_width": 1920,
processFile:14>             "coded_height": 1080,
processFile:15>             "closed_captions": 0,
processFile:16>             "film_grain": 0,
processFile:17>             "has_b_frames": 4,
processFile:18>             "sample_aspect_ratio": "1:1",
processFile:19>             "display_aspect_ratio": "16:9",
processFile:20>             "pix_fmt": "yuv420p",
processFile:21>             "level": 41,
processFile:22>             "chroma_location": "left",
processFile:23>             "field_order": "progressive",
processFile:24>             "refs": 1,
processFile:25>             "is_avc": "true",
processFile:26>             "nal_length_size": "4",
processFile:27>             "r_frame_rate": "24000/1001",
processFile:28>             "avg_frame_rate": "24000/1001",
processFile:29>             "time_base": "1/1000",
processFile:30>             "start_pts": 0,
processFile:31>             "start_time": "0.000000",
processFile:32>             "bits_per_raw_sample": "8",
processFile:33>             "extradata_size": 116,
processFile:34>             "disposition": {
processFile:35>                 "default": 0,
processFile:36>                 "dub": 0,
processFile:37>                 "original": 0,
processFile:38>                 "comment": 0,
processFile:39>                 "lyrics": 0,
processFile:40>                 "karaoke": 0,
processFile:41>                 "forced": 0,
processFile:42>                 "hearing_impaired": 0,
processFile:43>                 "visual_impaired": 0,
processFile:44>                 "clean_effects": 0,
processFile:45>                 "attached_pic": 0,
processFile:46>                 "timed_thumbnails": 0,
processFile:47>                 "captions": 0,
processFile:48>                 "descriptions": 0,
processFile:49>                 "metadata": 0,
processFile:50>                 "dependent": 0,
processFile:51>                 "still_image": 0
processFile:52>             },
processFile:53>             "tags": {
processFile:54>                 "language": "eng",
processFile:55>                 "BPS-eng": "23350068",
processFile:56>                 "DURATION-eng": "00:06:57.041625000",
processFile:57>                 "NUMBER_OF_FRAMES-eng": "9999",
processFile:58>                 "NUMBER_OF_BYTES-eng": "1217241997",
processFile:59>                 "SOURCE_ID-eng": "001011",
processFile:60>                 "_STATISTICS_WRITING_APP-eng": "MakeMKV v1.17.2 win(x64-release)",
processFile:61>                 "_STATISTICS_WRITING_DATE_UTC-eng": "2022-12-18 18:00:40",
processFile:62>                 "_STATISTICS_TAGS-eng": "BPS DURATION NUMBER_OF_FRAMES NUMBER_OF_BYTES SOURCE_ID"
processFile:63>             }
processFile:64>         },
processFile:65>         {
processFile:66>             "index": 1,
processFile:67>             "codec_name": "truehd",
processFile:68>             "codec_long_name": "TrueHD",
processFile:69>             "codec_type": "audio",
processFile:70>             "codec_tag_string": "[0][0][0][0]",
processFile:71>             "codec_tag": "0x0000",
processFile:72>             "sample_fmt": "s32",
processFile:73>             "sample_rate": "48000",
processFile:74>             "channels": 8,
processFile:75>             "channel_layout": "7.1",
processFile:76>             "bits_per_sample": 0,
processFile:77>             "initial_padding": 0,
processFile:78>             "r_frame_rate": "0/0",
processFile:79>             "avg_frame_rate": "0/0",
processFile:80>             "time_base": "1/1000",
processFile:81>             "start_pts": 0,
processFile:82>             "start_time": "0.000000",
processFile:83>             "bits_per_raw_sample": "24",
processFile:84>             "disposition": {
processFile:85>                 "default": 1,
processFile:86>                 "dub": 0,
processFile:87>                 "original": 0,
processFile:88>                 "comment": 0,
processFile:89>                 "lyrics": 0,
processFile:90>                 "karaoke": 0,
processFile:91>                 "forced": 0,
processFile:92>                 "hearing_impaired": 0,
processFile:93>                 "visual_impaired": 0,
processFile:94>                 "clean_effects": 0,
processFile:95>                 "attached_pic": 0,
processFile:96>                 "timed_thumbnails": 0,
processFile:97>                 "captions": 0,
processFile:98>                 "descriptions": 0,
processFile:99>                 "metadata": 0,
processFile:100>                 "dependent": 0,
processFile:101>                 "still_image": 0
processFile:102>             },
processFile:103>             "tags": {
processFile:104>                 "language": "eng",
processFile:105>                 "title": "Surround 7.1",
processFile:106>                 "BPS-eng": "5559025",
processFile:107>                 "DURATION-eng": "00:06:57.042500000",
processFile:108>                 "NUMBER_OF_FRAMES-eng": "500451",
processFile:109>                 "NUMBER_OF_BYTES-eng": "289793392",
processFile:110>                 "SOURCE_ID-eng": "001100",
processFile:111>                 "_STATISTICS_WRITING_APP-eng": "MakeMKV v1.17.2 win(x64-release)",
processFile:112>                 "_STATISTICS_WRITING_DATE_UTC-eng": "2022-12-18 18:00:40",
processFile:113>                 "_STATISTICS_TAGS-eng": "BPS DURATION NUMBER_OF_FRAMES NUMBER_OF_BYTES SOURCE_ID"
processFile:114>             }
processFile:115>         },
processFile:116>         {
processFile:117>             "index": 2,
processFile:118>             "codec_name": "ac3",
processFile:119>             "codec_long_name": "ATSC A/52A (AC-3)",
processFile:120>             "codec_type": "audio",
processFile:121>             "codec_tag_string": "[0][0][0][0]",
processFile:122>             "codec_tag": "0x0000",
processFile:123>             "sample_fmt": "fltp",
processFile:124>             "sample_rate": "48000",
processFile:125>             "channels": 6,
processFile:126>             "channel_layout": "5.1(side)",
processFile:127>             "bits_per_sample": 0,
processFile:128>             "initial_padding": 0,
processFile:129>             "r_frame_rate": "0/0",
processFile:130>             "avg_frame_rate": "0/0",
processFile:131>             "time_base": "1/1000",
processFile:132>             "start_pts": 0,
processFile:133>             "start_time": "0.000000",
processFile:134>             "bit_rate": "640000",
processFile:135>             "disposition": {
processFile:136>                 "default": 0,
processFile:137>                 "dub": 0,
processFile:138>                 "original": 0,
processFile:139>                 "comment": 0,
processFile:140>                 "lyrics": 0,
processFile:141>                 "karaoke": 0,
processFile:142>                 "forced": 0,
processFile:143>                 "hearing_impaired": 0,
processFile:144>                 "visual_impaired": 0,
processFile:145>                 "clean_effects": 0,
processFile:146>                 "attached_pic": 0,
processFile:147>                 "timed_thumbnails": 0,
processFile:148>                 "captions": 0,
processFile:149>                 "descriptions": 0,
processFile:150>                 "metadata": 0,
processFile:151>                 "dependent": 0,
processFile:152>                 "still_image": 0
processFile:153>             },
processFile:154>             "tags": {
processFile:155>                 "language": "eng",
processFile:156>                 "title": "Surround 5.1",
processFile:157>                 "BPS-eng": "640000",
processFile:158>                 "DURATION-eng": "00:06:57.088000000",
processFile:159>                 "NUMBER_OF_FRAMES-eng": "13034",
processFile:160>                 "NUMBER_OF_BYTES-eng": "33367040",
processFile:161>                 "SOURCE_ID-eng": "001100",
processFile:162>                 "_STATISTICS_WRITING_APP-eng": "MakeMKV v1.17.2 win(x64-release)",
processFile:163>                 "_STATISTICS_WRITING_DATE_UTC-eng": "2022-12-18 18:00:40",
processFile:164>                 "_STATISTICS_TAGS-eng": "BPS DURATION NUMBER_OF_FRAMES NUMBER_OF_BYTES SOURCE_ID"
processFile:165>             }
processFile:166>         },
processFile:167>         {
processFile:168>             "index": 3,
processFile:169>             "codec_name": "ac3",
processFile:170>             "codec_long_name": "ATSC A/52A (AC-3)",
processFile:171>             "codec_type": "audio",
processFile:172>             "codec_tag_string": "[0][0][0][0]",
processFile:173>             "codec_tag": "0x0000",
processFile:174>             "sample_fmt": "fltp",
processFile:175>             "sample_rate": "48000",
processFile:176>             "channels": 2,
processFile:177>             "channel_layout": "stereo",
processFile:178>             "bits_per_sample": 0,
processFile:179>             "initial_padding": 0,
processFile:180>             "r_frame_rate": "0/0",
processFile:181>             "avg_frame_rate": "0/0",
processFile:182>             "time_base": "1/1000",
processFile:183>             "start_pts": 0,
processFile:184>             "start_time": "0.000000",
processFile:185>             "bit_rate": "320000",
processFile:186>             "disposition": {
processFile:187>                 "default": 0,
processFile:188>                 "dub": 0,
processFile:189>                 "original": 0,
processFile:190>                 "comment": 0,
processFile:191>                 "lyrics": 0,
processFile:192>                 "karaoke": 0,
processFile:193>                 "forced": 0,
processFile:194>                 "hearing_impaired": 0,
processFile:195>                 "visual_impaired": 0,
processFile:196>                 "clean_effects": 0,
processFile:197>                 "attached_pic": 0,
processFile:198>                 "timed_thumbnails": 0,
processFile:199>                 "captions": 0,
processFile:200>                 "descriptions": 0,
processFile:201>                 "metadata": 0,
processFile:202>                 "dependent": 0,
processFile:203>                 "still_image": 0
processFile:204>             },
processFile:205>             "tags": {
processFile:206>                 "language": "eng",
processFile:207>                 "title": "Stereo",
processFile:208>                 "BPS-eng": "320000",
processFile:209>                 "DURATION-eng": "00:06:57.088000000",
processFile:210>                 "NUMBER_OF_FRAMES-eng": "13034",
processFile:211>                 "NUMBER_OF_BYTES-eng": "16683520",
processFile:212>                 "SOURCE_ID-eng": "001101",
processFile:213>                 "_STATISTICS_WRITING_APP-eng": "MakeMKV v1.17.2 win(x64-release)",
processFile:214>                 "_STATISTICS_WRITING_DATE_UTC-eng": "2022-12-18 18:00:40",
processFile:215>                 "_STATISTICS_TAGS-eng": "BPS DURATION NUMBER_OF_FRAMES NUMBER_OF_BYTES SOURCE_ID"
processFile:216>             }
processFile:217>         },
processFile:218>         {
processFile:219>             "index": 4,
processFile:220>             "codec_name": "ac3",
processFile:221>             "codec_long_name": "ATSC A/52A (AC-3)",
processFile:222>             "codec_type": "audio",
processFile:223>             "codec_tag_string": "[0][0][0][0]",
processFile:224>             "codec_tag": "0x0000",
processFile:225>             "sample_fmt": "fltp",
processFile:226>             "sample_rate": "48000",
processFile:227>             "channels": 2,
processFile:228>             "channel_layout": "stereo",
processFile:229>             "bits_per_sample": 0,
processFile:230>             "initial_padding": 0,
processFile:231>             "r_frame_rate": "0/0",
processFile:232>             "avg_frame_rate": "0/0",
processFile:233>             "time_base": "1/1000",
processFile:234>             "start_pts": 0,
processFile:235>             "start_time": "0.000000",
processFile:236>             "bit_rate": "320000",
processFile:237>             "disposition": {
processFile:238>                 "default": 0,
processFile:239>                 "dub": 0,
processFile:240>                 "original": 0,
processFile:241>                 "comment": 0,
processFile:242>                 "lyrics": 0,
processFile:243>                 "karaoke": 0,
processFile:244>                 "forced": 0,
processFile:245>                 "hearing_impaired": 0,
processFile:246>                 "visual_impaired": 0,
processFile:247>                 "clean_effects": 0,
processFile:248>                 "attached_pic": 0,
processFile:249>                 "timed_thumbnails": 0,
processFile:250>                 "captions": 0,
processFile:251>                 "descriptions": 0,
processFile:252>                 "metadata": 0,
processFile:253>                 "dependent": 0,
processFile:254>                 "still_image": 0
processFile:255>             },
processFile:256>             "tags": {
processFile:257>                 "language": "eng",
processFile:258>                 "title": "Stereo",
processFile:259>                 "BPS-eng": "320000",
processFile:260>                 "DURATION-eng": "00:06:57.088000000",
processFile:261>                 "NUMBER_OF_FRAMES-eng": "13034",
processFile:262>                 "NUMBER_OF_BYTES-eng": "16683520",
processFile:263>                 "SOURCE_ID-eng": "001102",
processFile:264>                 "_STATISTICS_WRITING_APP-eng": "MakeMKV v1.17.2 win(x64-release)",
processFile:265>                 "_STATISTICS_WRITING_DATE_UTC-eng": "2022-12-18 18:00:40",
processFile:266>                 "_STATISTICS_TAGS-eng": "BPS DURATION NUMBER_OF_FRAMES NUMBER_OF_BYTES SOURCE_ID"
processFile:267>             }
processFile:268>         },
processFile:269>         {
processFile:270>             "index": 5,
processFile:271>             "codec_name": "hdmv_pgs_subtitle",
processFile:272>             "codec_long_name": "HDMV Presentation Graphic Stream subtitles",
processFile:273>             "codec_type": "subtitle",
processFile:274>             "codec_tag_string": "[0][0][0][0]",
processFile:275>             "codec_tag": "0x0000",
processFile:276>             "width": 1920,
processFile:277>             "height": 1080,
processFile:278>             "r_frame_rate": "0/0",
processFile:279>             "avg_frame_rate": "0/0",
processFile:280>             "time_base": "1/1000",
processFile:281>             "start_pts": 1001,
processFile:282>             "start_time": "1.001000",
processFile:283>             "disposition": {
processFile:284>                 "default": 0,
processFile:285>                 "dub": 0,
processFile:286>                 "original": 0,
processFile:287>                 "comment": 0,
processFile:288>                 "lyrics": 0,
processFile:289>                 "karaoke": 0,
processFile:290>                 "forced": 0,
processFile:291>                 "hearing_impaired": 0,
processFile:292>                 "visual_impaired": 0,
processFile:293>                 "clean_effects": 0,
processFile:294>                 "attached_pic": 0,
processFile:295>                 "timed_thumbnails": 0,
processFile:296>                 "captions": 0,
processFile:297>                 "descriptions": 0,
processFile:298>                 "metadata": 0,
processFile:299>                 "dependent": 0,
processFile:300>                 "still_image": 0
processFile:301>             },
processFile:302>             "tags": {
processFile:303>                 "language": "eng",
processFile:304>                 "BPS-eng": "12173",
processFile:305>                 "DURATION-eng": "00:06:10.390854166",
processFile:306>                 "NUMBER_OF_FRAMES-eng": "114",
processFile:307>                 "NUMBER_OF_BYTES-eng": "563611",
processFile:308>                 "SOURCE_ID-eng": "001200",
processFile:309>                 "_STATISTICS_WRITING_APP-eng": "MakeMKV v1.17.2 win(x64-release)",
processFile:310>                 "_STATISTICS_WRITING_DATE_UTC-eng": "2022-12-18 18:00:40",
processFile:311>                 "_STATISTICS_TAGS-eng": "BPS DURATION NUMBER_OF_FRAMES NUMBER_OF_BYTES SOURCE_ID"
processFile:312>             }
processFile:313>         }
processFile:314>     ]
processFile:315> }
setTranscodeStatus(.in_work)> Touching file: D:\Temp\Brave\La Lune-short.in_work
setTranscodeStatus(.in_work)> Touching file: D:\Temp\La Lune-short.in_work
transcodeFile> Transcoding: TranscodeFile> theMP4FileName: La Lune-short.mp4, mkvFinalDirectory: D:\Temp\Brave\, mp4OutputDirectory: D:\Temp\, mp4FinalDirectory: D:\Temp\, length: 1575095292
findExcludedAudioStreams> Found excluded audio title stream: {1,truehd,audio,Surround 7.1,eng}
"D:\Program Files\ffmpeg\bin\ffmpeg" -y -i "D:\Temp\Brave\La Lune-short.mkv" -i "D:\Temp\Brave\La Lune-short.5.srt" -map 0 -vf yadif=1 -vcodec libx264 -crf 17 -movflags +faststart -metadata title="La Lune" -map -0:1 -map -0:s -map 1:s -c:s mov_text "D:\Temp\La Lune-short.mp4"
executeCommand> "D:\Program Files\ffmpeg\bin\ffmpeg" -y -i "D:\Temp\Brave\La Lune-short.mkv" -i "D:\Temp\Brave\La Lune-short.5.srt" -map 0 -vf yadif=1 -vcodec libx264 -crf 17 -movflags +faststart -metadata title="La Lune" -map -0:1 -map -0:s -map 1:s -c:s mov_text "D:\Temp\La Lune-short.mp4"
executeCommand> ErrorStream: ffmpeg version 2022-12-15-git-9adf02247c-essentials_build-www.gyan.dev Copyright (c) 2000-2022 the FFmpeg developers
executeCommand> ErrorStream:   built with gcc 12.1.0 (Rev2, Built by MSYS2 project)
executeCommand> ErrorStream:   configuration: --enable-gpl --enable-version3 --enable-static --disable-w32threads --disable-autodetect --enable-fontconfig --enable-iconv --enable-gnutls --enable-libxml2 --enable-gmp --enable-bzlib --enable-lzma --enable-zlib --enable-libsrt --enable-libssh --enable-libzmq --enable-avisynth --enable-sdl2 --enable-libwebp --enable-libx264 --enable-libx265 --enable-libxvid --enable-libaom --enable-libopenjpeg --enable-libvpx --enable-mediafoundation --enable-libass --enable-libfreetype --enable-libfribidi --enable-libvidstab --enable-libvmaf --enable-libzimg --enable-amf --enable-cuda-llvm --enable-cuvid --enable-ffnvcodec --enable-nvdec --enable-nvenc --enable-d3d11va --enable-dxva2 --enable-libvpl --enable-libgme --enable-libopenmpt --enable-libopencore-amrwb --enable-libmp3lame --enable-libtheora --enable-libvo-amrwbenc --enable-libgsm --enable-libopencore-amrnb --enable-libopus --enable-libspeex --enable-libvorbis --enable-librubberband
executeCommand> ErrorStream:   libavutil      57. 43.100 / 57. 43.100
executeCommand> ErrorStream:   libavcodec     59. 55.100 / 59. 55.100
executeCommand> ErrorStream:   libavformat    59. 34.102 / 59. 34.102
executeCommand> ErrorStream:   libavdevice    59.  8.101 / 59.  8.101
executeCommand> ErrorStream:   libavfilter     8. 52.100 /  8. 52.100
executeCommand> ErrorStream:   libswscale      6.  8.112 /  6.  8.112
executeCommand> ErrorStream:   libswresample   4.  9.100 /  4.  9.100
executeCommand> ErrorStream:   libpostproc    56.  7.100 / 56.  7.100
executeCommand> ErrorStream: Input #0, matroska,webm, from 'D:\Temp\Brave\La Lune-short.mkv':
executeCommand> ErrorStream:   Metadata:
executeCommand> ErrorStream:     title           : Brave
executeCommand> ErrorStream:     encoder         : libmakemkv v1.17.2 (1.3.10/1.5.2) win(x64-release)
executeCommand> ErrorStream:     creation_time   : 2022-12-18T18:00:40.000000Z
executeCommand> ErrorStream:   Duration: 00:06:57.09, start: 0.000000, bitrate: 30211 kb/s
executeCommand> ErrorStream:   Chapters:
executeCommand> ErrorStream:     Chapter #0:0: start 0.000000, end 146.771625
executeCommand> ErrorStream:       Metadata:
executeCommand> ErrorStream:         title           : Chapter 01
executeCommand> ErrorStream:     Chapter #0:1: start 146.771625, end 277.735792
executeCommand> ErrorStream:       Metadata:
executeCommand> ErrorStream:         title           : Chapter 02
executeCommand> ErrorStream:     Chapter #0:2: start 277.735792, end 377.752375
executeCommand> ErrorStream:       Metadata:
executeCommand> ErrorStream:         title           : Chapter 03
executeCommand> ErrorStream:     Chapter #0:3: start 377.752375, end 417.088000
executeCommand> ErrorStream:       Metadata:
executeCommand> ErrorStream:         title           : Chapter 04
executeCommand> ErrorStream:   Stream #0:0(eng): Video: h264 (High), yuv420p(progressive), 1920x1080 [SAR 1:1 DAR 16:9], 23.98 fps, 23.98 tbr, 1k tbn
executeCommand> ErrorStream:     Metadata:
executeCommand> ErrorStream:       BPS-eng         : 23350068
executeCommand> ErrorStream:       DURATION-eng    : 00:06:57.041625000
executeCommand> ErrorStream:       NUMBER_OF_FRAMES-eng: 9999
executeCommand> ErrorStream:       NUMBER_OF_BYTES-eng: 1217241997
executeCommand> ErrorStream:       SOURCE_ID-eng   : 001011
executeCommand> ErrorStream:       _STATISTICS_WRITING_APP-eng: MakeMKV v1.17.2 win(x64-release)
executeCommand> ErrorStream:       _STATISTICS_WRITING_DATE_UTC-eng: 2022-12-18 18:00:40
executeCommand> ErrorStream:       _STATISTICS_TAGS-eng: BPS DURATION NUMBER_OF_FRAMES NUMBER_OF_BYTES SOURCE_ID
executeCommand> ErrorStream:   Stream #0:1(eng): Audio: truehd, 48000 Hz, 7.1, s32 (24 bit) (default)
executeCommand> ErrorStream:     Metadata:
executeCommand> ErrorStream:       title           : Surround 7.1
executeCommand> ErrorStream:       BPS-eng         : 5559025
executeCommand> ErrorStream:       DURATION-eng    : 00:06:57.042500000
executeCommand> ErrorStream:       NUMBER_OF_FRAMES-eng: 500451
executeCommand> ErrorStream:       NUMBER_OF_BYTES-eng: 289793392
executeCommand> ErrorStream:       SOURCE_ID-eng   : 001100
executeCommand> ErrorStream:       _STATISTICS_WRITING_APP-eng: MakeMKV v1.17.2 win(x64-release)
executeCommand> ErrorStream:       _STATISTICS_WRITING_DATE_UTC-eng: 2022-12-18 18:00:40
executeCommand> ErrorStream:       _STATISTICS_TAGS-eng: BPS DURATION NUMBER_OF_FRAMES NUMBER_OF_BYTES SOURCE_ID
executeCommand> ErrorStream:   Stream #0:2(eng): Audio: ac3, 48000 Hz, 5.1(side), fltp, 640 kb/s
executeCommand> ErrorStream:     Metadata:
executeCommand> ErrorStream:       title           : Surround 5.1
executeCommand> ErrorStream:       BPS-eng         : 640000
executeCommand> ErrorStream:       DURATION-eng    : 00:06:57.088000000
executeCommand> ErrorStream:       NUMBER_OF_FRAMES-eng: 13034
executeCommand> ErrorStream:       NUMBER_OF_BYTES-eng: 33367040
executeCommand> ErrorStream:       SOURCE_ID-eng   : 001100
executeCommand> ErrorStream:       _STATISTICS_WRITING_APP-eng: MakeMKV v1.17.2 win(x64-release)
executeCommand> ErrorStream:       _STATISTICS_WRITING_DATE_UTC-eng: 2022-12-18 18:00:40
executeCommand> ErrorStream:       _STATISTICS_TAGS-eng: BPS DURATION NUMBER_OF_FRAMES NUMBER_OF_BYTES SOURCE_ID
executeCommand> ErrorStream:   Stream #0:3(eng): Audio: ac3, 48000 Hz, stereo, fltp, 320 kb/s
executeCommand> ErrorStream:     Metadata:
executeCommand> ErrorStream:       title           : Stereo
executeCommand> ErrorStream:       BPS-eng         : 320000
executeCommand> ErrorStream:       DURATION-eng    : 00:06:57.088000000
executeCommand> ErrorStream:       NUMBER_OF_FRAMES-eng: 13034
executeCommand> ErrorStream:       NUMBER_OF_BYTES-eng: 16683520
executeCommand> ErrorStream:       SOURCE_ID-eng   : 001101
executeCommand> ErrorStream:       _STATISTICS_WRITING_APP-eng: MakeMKV v1.17.2 win(x64-release)
executeCommand> ErrorStream:       _STATISTICS_WRITING_DATE_UTC-eng: 2022-12-18 18:00:40
executeCommand> ErrorStream:       _STATISTICS_TAGS-eng: BPS DURATION NUMBER_OF_FRAMES NUMBER_OF_BYTES SOURCE_ID
executeCommand> ErrorStream:   Stream #0:4(eng): Audio: ac3, 48000 Hz, stereo, fltp, 320 kb/s
executeCommand> ErrorStream:     Metadata:
executeCommand> ErrorStream:       title           : Stereo
executeCommand> ErrorStream:       BPS-eng         : 320000
executeCommand> ErrorStream:       DURATION-eng    : 00:06:57.088000000
executeCommand> ErrorStream:       NUMBER_OF_FRAMES-eng: 13034
executeCommand> ErrorStream:       NUMBER_OF_BYTES-eng: 16683520
executeCommand> ErrorStream:       SOURCE_ID-eng   : 001102
executeCommand> ErrorStream:       _STATISTICS_WRITING_APP-eng: MakeMKV v1.17.2 win(x64-release)
executeCommand> ErrorStream:       _STATISTICS_WRITING_DATE_UTC-eng: 2022-12-18 18:00:40
executeCommand> ErrorStream:       _STATISTICS_TAGS-eng: BPS DURATION NUMBER_OF_FRAMES NUMBER_OF_BYTES SOURCE_ID
executeCommand> ErrorStream:   Stream #0:5(eng): Subtitle: hdmv_pgs_subtitle, 1920x1080
executeCommand> ErrorStream:     Metadata:
executeCommand> ErrorStream:       BPS-eng         : 12173
executeCommand> ErrorStream:       DURATION-eng    : 00:06:10.390854166
executeCommand> ErrorStream:       NUMBER_OF_FRAMES-eng: 114
executeCommand> ErrorStream:       NUMBER_OF_BYTES-eng: 563611
executeCommand> ErrorStream:       SOURCE_ID-eng   : 001200
executeCommand> ErrorStream:       _STATISTICS_WRITING_APP-eng: MakeMKV v1.17.2 win(x64-release)
executeCommand> ErrorStream:       _STATISTICS_WRITING_DATE_UTC-eng: 2022-12-18 18:00:40
executeCommand> ErrorStream:       _STATISTICS_TAGS-eng: BPS DURATION NUMBER_OF_FRAMES NUMBER_OF_BYTES SOURCE_ID
executeCommand> ErrorStream: Input #1, srt, from 'D:\Temp\Brave\La Lune-short.5.srt':
executeCommand> ErrorStream:   Duration: N/A, bitrate: N/A
executeCommand> ErrorStream:   Stream #1:0: Subtitle: subrip
executeCommand> ErrorStream: Stream mapping:
executeCommand> ErrorStream:   Stream #0:0 -> #0:0 (h264 (native) -> h264 (libx264))
executeCommand> ErrorStream:   Stream #0:2 -> #0:1 (ac3 (native) -> aac (native))
executeCommand> ErrorStream:   Stream #0:3 -> #0:2 (ac3 (native) -> aac (native))
executeCommand> ErrorStream:   Stream #0:4 -> #0:3 (ac3 (native) -> aac (native))
executeCommand> ErrorStream:   Stream #1:0 -> #0:4 (subrip (srt) -> mov_text (native))
executeCommand> ErrorStream: Press [q] to stop, [?] for help
executeCommand> ErrorStream: [aac @ 0000017116839880] Using a PCE to encode channel layout "5.1(side)"
executeCommand> ErrorStream: [libx264 @ 00000171168a35c0] using SAR=1/1
executeCommand> ErrorStream: [libx264 @ 00000171168a35c0] using cpu capabilities: MMX2 SSE2Fast SSSE3 SSE4.2 AVX FMA3 BMI2 AVX2
executeCommand> ErrorStream: [libx264 @ 00000171168a35c0] profile High, level 4.2, 4:2:0, 8-bit
executeCommand> ErrorStream: [libx264 @ 00000171168a35c0] 264 - core 164 r3102 416e3eb - H.264/MPEG-4 AVC codec - Copyleft 2003-2022 - http://www.videolan.org/x264.html - options: cabac=1 ref=3 deblock=1:0:0 analyse=0x3:0x113 me=hex subme=7 psy=1 psy_rd=1.00:0.00 mixed_ref=1 me_range=16 chroma_me=1 trellis=1 8x8dct=1 cqm=0 deadzone=21,11 fast_pskip=1 chroma_qp_offset=-2 threads=24 lookahead_threads=4 sliced_threads=0 nr=0 decimate=1 interlaced=0 bluray_compat=0 constrained_intra=0 bframes=3 b_pyramid=2 b_adapt=1 b_bias=0 direct=1 weightb=1 open_gop=0 weightp=2 keyint=250 keyint_min=25 scenecut=40 intra_refresh=0 rc_lookahead=40 rc=crf mbtree=1 crf=17.0 qcomp=0.60 qpmin=0 qpmax=69 qpstep=4 ip_ratio=1.40 aq=1:1.00
executeCommand> ErrorStream: Output #0, mp4, to 'D:\Temp\La Lune-short.mp4':
executeCommand> ErrorStream:   Metadata:
executeCommand> ErrorStream:     title           : La Lune
executeCommand> ErrorStream:     encoder         : Lavf59.34.102
executeCommand> ErrorStream:   Chapters:
executeCommand> ErrorStream:     Chapter #0:0: start 0.000000, end 146.771625
executeCommand> ErrorStream:       Metadata:
executeCommand> ErrorStream:         title           : Chapter 01
executeCommand> ErrorStream:     Chapter #0:1: start 146.771625, end 277.735792
executeCommand> ErrorStream:       Metadata:
executeCommand> ErrorStream:         title           : Chapter 02
executeCommand> ErrorStream:     Chapter #0:2: start 277.735792, end 377.752375
executeCommand> ErrorStream:       Metadata:
executeCommand> ErrorStream:         title           : Chapter 03
executeCommand> ErrorStream:     Chapter #0:3: start 377.752375, end 417.088000
executeCommand> ErrorStream:       Metadata:
executeCommand> ErrorStream:         title           : Chapter 04
executeCommand> ErrorStream:   Stream #0:0(eng): Video: h264 (avc1 / 0x31637661), yuv420p(progressive), 1920x1080 [SAR 1:1 DAR 16:9], q=2-31, 47.95 fps, 48k tbn
executeCommand> ErrorStream:     Metadata:
executeCommand> ErrorStream:       BPS-eng         : 23350068
executeCommand> ErrorStream:       DURATION-eng    : 00:06:57.041625000
executeCommand> ErrorStream:       NUMBER_OF_FRAMES-eng: 9999
executeCommand> ErrorStream:       NUMBER_OF_BYTES-eng: 1217241997
executeCommand> ErrorStream:       SOURCE_ID-eng   : 001011
executeCommand> ErrorStream:       _STATISTICS_WRITING_APP-eng: MakeMKV v1.17.2 win(x64-release)
executeCommand> ErrorStream:       _STATISTICS_WRITING_DATE_UTC-eng: 2022-12-18 18:00:40
executeCommand> ErrorStream:       _STATISTICS_TAGS-eng: BPS DURATION NUMBER_OF_FRAMES NUMBER_OF_BYTES SOURCE_ID
executeCommand> ErrorStream:       encoder         : Lavc59.55.100 libx264
executeCommand> ErrorStream:     Side data:
executeCommand> ErrorStream:       cpb: bitrate max/min/avg: 0/0/0 buffer size: 0 vbv_delay: N/A
executeCommand> ErrorStream:   Stream #0:1(eng): Audio: aac (LC) (mp4a / 0x6134706D), 48000 Hz, 5.1(side), fltp, 394 kb/s (default)
executeCommand> ErrorStream:     Metadata:
executeCommand> ErrorStream:       title           : Surround 5.1
executeCommand> ErrorStream:       BPS-eng         : 640000
executeCommand> ErrorStream:       DURATION-eng    : 00:06:57.088000000
executeCommand> ErrorStream:       NUMBER_OF_FRAMES-eng: 13034
executeCommand> ErrorStream:       NUMBER_OF_BYTES-eng: 33367040
executeCommand> ErrorStream:       SOURCE_ID-eng   : 001100
executeCommand> ErrorStream:       _STATISTICS_WRITING_APP-eng: MakeMKV v1.17.2 win(x64-release)
executeCommand> ErrorStream:       _STATISTICS_WRITING_DATE_UTC-eng: 2022-12-18 18:00:40
executeCommand> ErrorStream:       _STATISTICS_TAGS-eng: BPS DURATION NUMBER_OF_FRAMES NUMBER_OF_BYTES SOURCE_ID
executeCommand> ErrorStream:       encoder         : Lavc59.55.100 aac
executeCommand> ErrorStream:   Stream #0:2(eng): Audio: aac (LC) (mp4a / 0x6134706D), 48000 Hz, stereo, fltp, 128 kb/s
executeCommand> ErrorStream:     Metadata:
executeCommand> ErrorStream:       title           : Stereo
executeCommand> ErrorStream:       BPS-eng         : 320000
executeCommand> ErrorStream:       DURATION-eng    : 00:06:57.088000000
executeCommand> ErrorStream:       NUMBER_OF_FRAMES-eng: 13034
executeCommand> ErrorStream:       NUMBER_OF_BYTES-eng: 16683520
executeCommand> ErrorStream:       SOURCE_ID-eng   : 001101
executeCommand> ErrorStream:       _STATISTICS_WRITING_APP-eng: MakeMKV v1.17.2 win(x64-release)
executeCommand> ErrorStream:       _STATISTICS_WRITING_DATE_UTC-eng: 2022-12-18 18:00:40
executeCommand> ErrorStream:       _STATISTICS_TAGS-eng: BPS DURATION NUMBER_OF_FRAMES NUMBER_OF_BYTES SOURCE_ID
executeCommand> ErrorStream:       encoder         : Lavc59.55.100 aac
executeCommand> ErrorStream:   Stream #0:3(eng): Audio: aac (LC) (mp4a / 0x6134706D), 48000 Hz, stereo, fltp, 128 kb/s
executeCommand> ErrorStream:     Metadata:
executeCommand> ErrorStream:       title           : Stereo
executeCommand> ErrorStream:       BPS-eng         : 320000
executeCommand> ErrorStream:       DURATION-eng    : 00:06:57.088000000
executeCommand> ErrorStream:       NUMBER_OF_FRAMES-eng: 13034
executeCommand> ErrorStream:       NUMBER_OF_BYTES-eng: 16683520
executeCommand> ErrorStream:       SOURCE_ID-eng   : 001102
executeCommand> ErrorStream:       _STATISTICS_WRITING_APP-eng: MakeMKV v1.17.2 win(x64-release)
executeCommand> ErrorStream:       _STATISTICS_WRITING_DATE_UTC-eng: 2022-12-18 18:00:40
executeCommand> ErrorStream:       _STATISTICS_TAGS-eng: BPS DURATION NUMBER_OF_FRAMES NUMBER_OF_BYTES SOURCE_ID
executeCommand> ErrorStream:       encoder         : Lavc59.55.100 aac
executeCommand> ErrorStream:   Stream #0:4: Subtitle: mov_text (tx3g / 0x67337874)
executeCommand> ErrorStream:     Metadata:
executeCommand> ErrorStream:       encoder         : Lavc59.55.100 mov_text
executeCommand> ErrorStream: frame=    0 fps=0.0 q=0.0 size=       0kB time=00:00:00.78 bitrate=   1.5kbits/s speed=3.91x    
executeCommand> ErrorStream: frame=    0 fps=0.0 q=0.0 size=       0kB time=00:00:44.04 bitrate=   0.0kbits/s speed=62.6x    
executeCommand> ErrorStream: frame=   60 fps= 50 q=25.0 size=     256kB time=00:00:44.04 bitrate=  47.6kbits/s speed=36.5x    
executeCommand> ErrorStream: frame=   99 fps= 58 q=25.0 size=    1280kB time=00:00:44.04 bitrate= 238.1kbits/s speed=25.8x    
executeCommand> ErrorStream: frame=  148 fps= 66 q=25.0 size=    3072kB time=00:00:44.04 bitrate= 571.4kbits/s speed=19.7x    
executeCommand> ErrorStream: frame=  193 fps= 70 q=25.0 size=    4352kB time=00:00:44.04 bitrate= 809.5kbits/s speed=16.1x    
executeCommand> ErrorStream: frame=  240 fps= 74 q=25.0 size=    5120kB time=00:00:44.04 bitrate= 952.3kbits/s speed=13.6x    
executeCommand> ErrorStream: frame=  306 fps= 82 q=25.0 size=    5376kB time=00:00:44.04 bitrate= 999.9kbits/s speed=11.8x    
executeCommand> ErrorStream: frame=  368 fps= 87 q=25.0 size=    5632kB time=00:00:44.04 bitrate=1047.6kbits/s speed=10.4x    
executeCommand> ErrorStream: frame=  417 fps= 88 q=22.0 size=    5888kB time=00:00:44.04 bitrate=1095.2kbits/s speed=9.29x    
executeCommand> ErrorStream: frame=  468 fps= 89 q=25.0 size=    6400kB time=00:00:44.04 bitrate=1190.4kbits/s speed= 8.4x    
executeCommand> ErrorStream: frame=  518 fps= 90 q=25.0 size=    6912kB time=00:00:44.04 bitrate=1285.6kbits/s speed=7.67x    
executeCommand> ErrorStream: frame=  566 fps= 90 q=25.0 size=    7424kB time=00:00:44.04 bitrate=1380.9kbits/s speed=7.03x    
executeCommand> ErrorStream: frame=  620 fps= 92 q=25.0 size=    7936kB time=00:00:44.04 bitrate=1476.1kbits/s speed=6.51x    
executeCommand> ErrorStream: frame=  684 fps= 94 q=25.0 size=    8192kB time=00:00:44.04 bitrate=1523.7kbits/s speed=6.06x    
executeCommand> ErrorStream: frame=  738 fps= 95 q=25.0 size=    8704kB time=00:00:44.04 bitrate=1618.9kbits/s speed=5.67x    
executeCommand> ErrorStream: frame=  794 fps= 96 q=25.0 size=    9216kB time=00:00:44.04 bitrate=1714.2kbits/s speed=5.33x    
executeCommand> ErrorStream: frame=  848 fps= 97 q=25.0 size=    9728kB time=00:00:44.04 bitrate=1809.4kbits/s speed=5.02x    
executeCommand> ErrorStream: frame=  898 fps= 97 q=25.0 size=   10240kB time=00:00:44.04 bitrate=1904.6kbits/s speed=4.75x    
executeCommand> ErrorStream: frame=  938 fps= 96 q=25.0 size=   10496kB time=00:00:44.04 bitrate=1952.2kbits/s speed=4.51x    
executeCommand> ErrorStream: frame=  992 fps= 97 q=25.0 size=   11264kB time=00:00:44.04 bitrate=2095.1kbits/s speed=4.29x    
executeCommand> ErrorStream: frame= 1045 fps= 97 q=25.0 size=   11776kB time=00:00:44.04 bitrate=2190.3kbits/s speed=4.09x    
executeCommand> ErrorStream: frame= 1092 fps= 97 q=25.0 size=   12288kB time=00:00:44.04 bitrate=2285.5kbits/s speed= 3.9x    
executeCommand> ErrorStream: frame= 1136 fps= 96 q=25.0 size=   12800kB time=00:00:44.04 bitrate=2380.8kbits/s speed=3.74x    
executeCommand> ErrorStream: frame= 1188 fps= 97 q=25.0 size=   13568kB time=00:00:44.04 bitrate=2523.6kbits/s speed=3.59x    
executeCommand> ErrorStream: frame= 1244 fps= 97 q=25.0 size=   14080kB time=00:00:44.04 bitrate=2618.8kbits/s speed=3.44x    
executeCommand> ErrorStream: frame= 1298 fps= 98 q=25.0 size=   14592kB time=00:00:44.04 bitrate=2714.1kbits/s speed=3.31x    
executeCommand> ErrorStream: frame= 1350 fps= 97 q=25.0 size=   15104kB time=00:00:44.04 bitrate=2809.3kbits/s speed=3.17x    
executeCommand> ErrorStream: frame= 1416 fps= 98 q=25.0 size=   15616kB time=00:00:44.04 bitrate=2904.5kbits/s speed=3.06x    
executeCommand> ErrorStream: frame= 1480 fps= 99 q=25.0 size=   16128kB time=00:00:44.04 bitrate=2999.8kbits/s speed=2.96x    
executeCommand> ErrorStream: frame= 1530 fps= 99 q=25.0 size=   16384kB time=00:00:44.04 bitrate=3047.4kbits/s speed=2.86x    
executeCommand> ErrorStream: frame= 1592 fps=100 q=25.0 size=   16640kB time=00:00:44.04 bitrate=3095.0kbits/s speed=2.77x    
executeCommand> ErrorStream: frame= 1648 fps=100 q=25.0 size=   17152kB time=00:00:44.04 bitrate=3190.2kbits/s speed=2.68x    
executeCommand> ErrorStream: frame= 1706 fps=101 q=25.0 size=   17664kB time=00:00:44.04 bitrate=3285.5kbits/s speed= 2.6x    
executeCommand> ErrorStream: frame= 1764 fps=101 q=25.0 size=   18176kB time=00:00:44.04 bitrate=3380.7kbits/s speed=2.53x    
executeCommand> ErrorStream: frame= 1820 fps=102 q=25.0 size=   18688kB time=00:00:44.04 bitrate=3475.9kbits/s speed=2.46x    
executeCommand> ErrorStream: frame= 1880 fps=102 q=25.0 size=   19200kB time=00:00:44.04 bitrate=3571.1kbits/s speed=2.39x    
executeCommand> ErrorStream: frame= 1938 fps=102 q=25.0 size=   19968kB time=00:00:44.04 bitrate=3714.0kbits/s speed=2.33x    
executeCommand> ErrorStream: frame= 1990 fps=103 q=25.0 size=   20480kB time=00:00:44.04 bitrate=3809.2kbits/s speed=2.27x    
executeCommand> ErrorStream: frame= 2044 fps=103 q=25.0 size=   20736kB time=00:00:44.88 bitrate=3784.5kbits/s speed=2.25x    
executeCommand> ErrorStream: frame= 2103 fps=103 q=25.0 size=   21248kB time=00:00:46.38 bitrate=3753.0kbits/s speed=2.27x    
executeCommand> ErrorStream: frame= 2162 fps=103 q=25.0 size=   22016kB time=00:00:48.84 bitrate=3692.8kbits/s speed=2.33x    
executeCommand> ErrorStream: frame= 2214 fps=103 q=25.0 size=   22528kB time=00:00:48.84 bitrate=3778.7kbits/s speed=2.28x    
executeCommand> ErrorStream: frame= 2269 fps=103 q=25.0 size=   23040kB time=00:00:49.49 bitrate=3813.5kbits/s speed=2.26x    
executeCommand> ErrorStream: frame= 2325 fps=104 q=25.0 size=   23552kB time=00:00:51.96 bitrate=3712.6kbits/s speed=2.32x    
executeCommand> ErrorStream: frame= 2385 fps=104 q=25.0 size=   24320kB time=00:00:51.96 bitrate=3833.6kbits/s speed=2.27x    
executeCommand> ErrorStream: frame= 2439 fps=104 q=25.0 size=   24832kB time=00:00:55.13 bitrate=3689.4kbits/s speed=2.35x    
executeCommand> ErrorStream: frame= 2492 fps=104 q=25.0 size=   25344kB time=00:00:55.13 bitrate=3765.4kbits/s speed= 2.3x    
executeCommand> ErrorStream: frame= 2546 fps=104 q=25.0 size=   25856kB time=00:00:55.29 bitrate=3830.5kbits/s speed=2.26x    
executeCommand> ErrorStream: frame= 2602 fps=104 q=25.0 size=   26368kB time=00:00:56.51 bitrate=3822.3kbits/s speed=2.27x    
executeCommand> ErrorStream: frame= 2659 fps=104 q=25.0 size=   27136kB time=00:01:00.51 bitrate=3673.2kbits/s speed=2.38x    
executeCommand> ErrorStream: frame= 2712 fps=104 q=25.0 size=   27648kB time=00:01:00.51 bitrate=3742.5kbits/s speed=2.33x    
executeCommand> ErrorStream: frame= 2764 fps=104 q=25.0 size=   28416kB time=00:01:00.51 bitrate=3846.5kbits/s speed=2.29x    
executeCommand> ErrorStream: frame= 2816 fps=104 q=25.0 size=   29184kB time=00:01:00.82 bitrate=3930.8kbits/s speed=2.26x    
executeCommand> ErrorStream: frame= 2862 fps=104 q=25.0 size=   29952kB time=00:01:02.47 bitrate=3927.2kbits/s speed=2.27x    
executeCommand> ErrorStream: frame= 2901 fps=104 q=22.0 size=   30464kB time=00:01:02.67 bitrate=3981.7kbits/s speed=2.24x    
executeCommand> ErrorStream: frame= 2954 fps=104 q=25.0 size=   31232kB time=00:01:04.18 bitrate=3985.9kbits/s speed=2.25x    
executeCommand> ErrorStream: frame= 3004 fps=104 q=25.0 size=   31744kB time=00:01:04.85 bitrate=4009.8kbits/s speed=2.24x    
executeCommand> ErrorStream: frame= 3053 fps=103 q=25.0 size=   32512kB time=00:01:19.49 bitrate=3350.4kbits/s speed=2.69x    
executeCommand> ErrorStream: frame= 3110 fps=104 q=25.0 size=   33280kB time=00:01:19.49 bitrate=3429.5kbits/s speed=2.65x    
executeCommand> ErrorStream: frame= 3155 fps=103 q=25.0 size=   33792kB time=00:01:19.49 bitrate=3482.3kbits/s speed=2.61x    
executeCommand> ErrorStream: frame= 3217 fps=104 q=25.0 size=   34304kB time=00:01:19.49 bitrate=3535.0kbits/s speed=2.56x    
executeCommand> ErrorStream: frame= 3276 fps=104 q=25.0 size=   34816kB time=00:01:19.49 bitrate=3587.8kbits/s speed=2.52x    
executeCommand> ErrorStream: frame= 3338 fps=104 q=25.0 size=   35072kB time=00:01:19.49 bitrate=3614.2kbits/s speed=2.48x    
executeCommand> ErrorStream: frame= 3393 fps=104 q=25.0 size=   35584kB time=00:01:19.49 bitrate=3666.9kbits/s speed=2.44x    
executeCommand> ErrorStream: frame= 3446 fps=104 q=25.0 size=   35840kB time=00:01:19.49 bitrate=3693.3kbits/s speed=2.41x    
executeCommand> ErrorStream: frame= 3496 fps=104 q=25.0 size=   36352kB time=00:01:19.49 bitrate=3746.1kbits/s speed=2.37x    
executeCommand> ErrorStream: frame= 3552 fps=104 q=25.0 size=   36864kB time=00:01:19.49 bitrate=3798.8kbits/s speed=2.34x    
executeCommand> ErrorStream: frame= 3604 fps=104 q=25.0 size=   37120kB time=00:01:19.49 bitrate=3825.2kbits/s speed= 2.3x    
executeCommand> ErrorStream: frame= 3655 fps=104 q=25.0 size=   37632kB time=00:01:19.49 bitrate=3878.0kbits/s speed=2.27x    
executeCommand> ErrorStream: frame= 3708 fps=104 q=25.0 size=   37888kB time=00:01:19.50 bitrate=3903.7kbits/s speed=2.24x    
executeCommand> ErrorStream: frame= 3763 fps=104 q=25.0 size=   38400kB time=00:01:21.99 bitrate=3836.3kbits/s speed=2.28x    
executeCommand> ErrorStream: frame= 3812 fps=104 q=25.0 size=   38912kB time=00:01:21.99 bitrate=3887.5kbits/s speed=2.24x    
executeCommand> ErrorStream: frame= 3864 fps=104 q=25.0 size=   39424kB time=00:01:22.81 bitrate=3899.8kbits/s speed=2.24x    
executeCommand> ErrorStream: frame= 3918 fps=104 q=25.0 size=   39936kB time=00:01:29.21 bitrate=3667.1kbits/s speed=2.38x    
executeCommand> ErrorStream: frame= 3976 fps=104 q=25.0 size=   40448kB time=00:01:29.21 bitrate=3714.1kbits/s speed=2.34x    
executeCommand> ErrorStream: frame= 4020 fps=104 q=22.0 size=   40704kB time=00:01:29.21 bitrate=3737.6kbits/s speed=2.31x    
executeCommand> ErrorStream: frame= 4077 fps=104 q=25.0 size=   41472kB time=00:01:29.21 bitrate=3808.1kbits/s speed=2.28x    
executeCommand> ErrorStream: frame= 4120 fps=104 q=25.0 size=   41984kB time=00:01:29.21 bitrate=3855.2kbits/s speed=2.25x    
executeCommand> ErrorStream: frame= 4170 fps=104 q=25.0 size=   42752kB time=00:01:29.21 bitrate=3925.7kbits/s speed=2.22x    
executeCommand> ErrorStream: frame= 4226 fps=104 q=25.0 size=   43264kB time=00:01:41.35 bitrate=3497.0kbits/s speed=2.49x    
executeCommand> ErrorStream: frame= 4280 fps=104 q=25.0 size=   43776kB time=00:01:41.35 bitrate=3538.3kbits/s speed=2.46x    
executeCommand> ErrorStream: frame= 4318 fps=104 q=25.0 size=   44288kB time=00:01:41.35 bitrate=3579.7kbits/s speed=2.43x    
executeCommand> ErrorStream: frame= 4377 fps=104 q=25.0 size=   44800kB time=00:01:41.35 bitrate=3621.1kbits/s speed= 2.4x    
executeCommand> ErrorStream: frame= 4426 fps=104 q=25.0 size=   45312kB time=00:01:41.35 bitrate=3662.5kbits/s speed=2.38x    
executeCommand> ErrorStream: frame= 4472 fps=104 q=25.0 size=   45824kB time=00:01:41.35 bitrate=3703.9kbits/s speed=2.35x    
executeCommand> ErrorStream: frame= 4524 fps=104 q=25.0 size=   46592kB time=00:01:41.35 bitrate=3766.0kbits/s speed=2.32x    
executeCommand> ErrorStream: frame= 4580 fps=104 q=25.0 size=   47104kB time=00:01:41.35 bitrate=3807.3kbits/s speed=2.29x    
executeCommand> ErrorStream: frame= 4628 fps=104 q=25.0 size=   47872kB time=00:01:41.35 bitrate=3869.4kbits/s speed=2.27x    
executeCommand> ErrorStream: frame= 4675 fps=103 q=25.0 size=   48384kB time=00:01:41.35 bitrate=3910.8kbits/s speed=2.24x    
executeCommand> ErrorStream: frame= 4720 fps=103 q=25.0 size=   48896kB time=00:01:41.35 bitrate=3952.2kbits/s speed=2.22x    
executeCommand> ErrorStream: frame= 4770 fps=103 q=25.0 size=   49664kB time=00:01:41.65 bitrate=4002.3kbits/s speed= 2.2x    
executeCommand> ErrorStream: frame= 4814 fps=103 q=25.0 size=   50176kB time=00:01:42.65 bitrate=4004.1kbits/s speed= 2.2x    
executeCommand> ErrorStream: frame= 4860 fps=103 q=25.0 size=   50944kB time=00:01:46.35 bitrate=3923.9kbits/s speed=2.25x    
executeCommand> ErrorStream: frame= 4907 fps=103 q=25.0 size=   51712kB time=00:01:46.35 bitrate=3983.1kbits/s speed=2.23x    
executeCommand> ErrorStream: frame= 4955 fps=103 q=25.0 size=   52480kB time=00:01:46.35 bitrate=4042.2kbits/s speed=2.21x    
executeCommand> ErrorStream: frame= 5004 fps=103 q=25.0 size=   53248kB time=00:01:46.62 bitrate=4091.1kbits/s speed=2.19x    
executeCommand> ErrorStream: frame= 5057 fps=103 q=25.0 size=   54016kB time=00:01:56.82 bitrate=3787.7kbits/s speed=2.38x    
executeCommand> ErrorStream: frame= 5106 fps=103 q=25.0 size=   54528kB time=00:01:56.82 bitrate=3823.6kbits/s speed=2.35x    
executeCommand> ErrorStream: frame= 5154 fps=103 q=25.0 size=   55296kB time=00:01:56.82 bitrate=3877.5kbits/s speed=2.33x    
executeCommand> ErrorStream: frame= 5202 fps=103 q=25.0 size=   55808kB time=00:01:56.82 bitrate=3913.4kbits/s speed= 2.3x    
executeCommand> ErrorStream: frame= 5252 fps=103 q=25.0 size=   56576kB time=00:01:56.82 bitrate=3967.2kbits/s speed=2.28x    
executeCommand> ErrorStream: frame= 5296 fps=102 q=25.0 size=   57088kB time=00:01:56.82 bitrate=4003.1kbits/s speed=2.26x    
executeCommand> ErrorStream: frame= 5344 fps=102 q=25.0 size=   57856kB time=00:01:56.82 bitrate=4057.0kbits/s speed=2.24x    
executeCommand> ErrorStream: frame= 5395 fps=102 q=25.0 size=   58368kB time=00:01:56.82 bitrate=4092.9kbits/s speed=2.21x    
executeCommand> ErrorStream: frame= 5444 fps=102 q=25.0 size=   59136kB time=00:01:56.82 bitrate=4146.7kbits/s speed=2.19x    
executeCommand> ErrorStream: frame= 5497 fps=102 q=25.0 size=   59648kB time=00:01:56.82 bitrate=4182.6kbits/s speed=2.17x    
executeCommand> ErrorStream: frame= 5547 fps=102 q=25.0 size=   60416kB time=00:01:58.70 bitrate=4169.5kbits/s speed=2.19x    
executeCommand> ErrorStream: frame= 5601 fps=102 q=25.0 size=   60928kB time=00:01:58.99 bitrate=4194.4kbits/s speed=2.17x    
executeCommand> ErrorStream: frame= 5644 fps=102 q=22.0 size=   61696kB time=00:02:14.92 bitrate=3745.9kbits/s speed=2.44x    
executeCommand> ErrorStream: frame= 5698 fps=102 q=25.0 size=   62464kB time=00:02:14.92 bitrate=3792.5kbits/s speed=2.42x    
executeCommand> ErrorStream: frame= 5753 fps=102 q=25.0 size=   63232kB time=00:02:14.92 bitrate=3839.1kbits/s speed= 2.4x    
executeCommand> ErrorStream: frame= 5804 fps=102 q=25.0 size=   63744kB time=00:02:14.92 bitrate=3870.2kbits/s speed=2.37x    
executeCommand> ErrorStream: frame= 5852 fps=102 q=25.0 size=   64256kB time=00:02:14.92 bitrate=3901.3kbits/s speed=2.35x    
executeCommand> ErrorStream: frame= 5900 fps=102 q=25.0 size=   64768kB time=00:02:14.92 bitrate=3932.4kbits/s speed=2.33x    
executeCommand> ErrorStream: frame= 5956 fps=102 q=25.0 size=   65536kB time=00:02:14.92 bitrate=3979.0kbits/s speed=2.31x    
executeCommand> ErrorStream: frame= 6004 fps=102 q=25.0 size=   66048kB time=00:02:14.92 bitrate=4010.1kbits/s speed=2.29x    
executeCommand> ErrorStream: frame= 6054 fps=102 q=25.0 size=   66560kB time=00:02:14.92 bitrate=4041.2kbits/s speed=2.27x    
executeCommand> ErrorStream: frame= 6106 fps=102 q=25.0 size=   67328kB time=00:02:14.92 bitrate=4087.8kbits/s speed=2.25x    
executeCommand> ErrorStream: frame= 6158 fps=102 q=25.0 size=   67840kB time=00:02:14.92 bitrate=4118.9kbits/s speed=2.24x    
executeCommand> ErrorStream: frame= 6211 fps=102 q=25.0 size=   68352kB time=00:02:14.92 bitrate=4150.0kbits/s speed=2.22x    
executeCommand> ErrorStream: frame= 6260 fps=102 q=25.0 size=   69120kB time=00:02:14.92 bitrate=4196.6kbits/s speed= 2.2x    
executeCommand> ErrorStream: frame= 6313 fps=102 q=25.0 size=   69888kB time=00:02:14.92 bitrate=4243.2kbits/s speed=2.18x    
executeCommand> ErrorStream: frame= 6368 fps=102 q=25.0 size=   70400kB time=00:02:14.97 bitrate=4272.7kbits/s speed=2.16x    
executeCommand> ErrorStream: frame= 6430 fps=102 q=25.0 size=   71168kB time=00:02:31.73 bitrate=3842.3kbits/s speed=2.41x    
executeCommand> ErrorStream: frame= 6487 fps=102 q=25.0 size=   71936kB time=00:02:31.73 bitrate=3883.8kbits/s speed=2.39x    
executeCommand> ErrorStream: frame= 6542 fps=102 q=25.0 size=   72448kB time=00:02:31.73 bitrate=3911.4kbits/s speed=2.37x    
executeCommand> ErrorStream: frame= 6600 fps=102 q=25.0 size=   73216kB time=00:02:31.73 bitrate=3952.9kbits/s speed=2.36x    
executeCommand> ErrorStream: frame= 6664 fps=103 q=25.0 size=   73728kB time=00:02:31.73 bitrate=3980.5kbits/s speed=2.34x    
executeCommand> ErrorStream: frame= 6715 fps=103 q=25.0 size=   74240kB time=00:02:31.73 bitrate=4008.1kbits/s speed=2.32x    
executeCommand> ErrorStream: frame= 6770 fps=103 q=25.0 size=   74752kB time=00:02:31.73 bitrate=4035.8kbits/s speed= 2.3x    
executeCommand> ErrorStream: frame= 6822 fps=103 q=25.0 size=   75264kB time=00:02:31.73 bitrate=4063.4kbits/s speed=2.29x    
executeCommand> ErrorStream: frame= 6876 fps=103 q=25.0 size=   75776kB time=00:02:31.73 bitrate=4091.1kbits/s speed=2.27x    
executeCommand> ErrorStream: frame= 6934 fps=103 q=25.0 size=   76288kB time=00:02:31.73 bitrate=4118.7kbits/s speed=2.25x    
executeCommand> ErrorStream: frame= 6991 fps=103 q=25.0 size=   76800kB time=00:02:31.73 bitrate=4146.4kbits/s speed=2.23x    
executeCommand> ErrorStream: frame= 7051 fps=103 q=25.0 size=   77312kB time=00:02:31.73 bitrate=4174.0kbits/s speed=2.22x    
executeCommand> ErrorStream: frame= 7119 fps=103 q=25.0 size=   77568kB time=00:02:31.73 bitrate=4187.8kbits/s speed= 2.2x    
executeCommand> ErrorStream: frame= 7181 fps=103 q=25.0 size=   78080kB time=00:02:31.89 bitrate=4211.1kbits/s speed=2.19x    
executeCommand> ErrorStream: frame= 7240 fps=104 q=25.0 size=   78592kB time=00:02:35.23 bitrate=4147.4kbits/s speed=2.22x    
executeCommand> ErrorStream: frame= 7296 fps=104 q=25.0 size=   79104kB time=00:02:35.23 bitrate=4174.4kbits/s speed= 2.2x    
executeCommand> ErrorStream: frame= 7347 fps=104 q=25.0 size=   79616kB time=00:02:35.39 bitrate=4197.2kbits/s speed=2.19x    
executeCommand> ErrorStream: frame= 7394 fps=104 q=25.0 size=   80384kB time=00:02:36.37 bitrate=4211.1kbits/s speed=2.19x    
executeCommand> ErrorStream: frame= 7434 fps=103 q=25.0 size=   80896kB time=00:02:43.62 bitrate=4050.2kbits/s speed=2.27x    
executeCommand> ErrorStream: frame= 7482 fps=103 q=25.0 size=   81664kB time=00:02:43.62 bitrate=4088.6kbits/s speed=2.26x    
executeCommand> ErrorStream: frame= 7527 fps=103 q=25.0 size=   82944kB time=00:02:43.62 bitrate=4152.7kbits/s speed=2.24x    
executeCommand> ErrorStream: frame= 7585 fps=103 q=25.0 size=   83712kB time=00:02:43.62 bitrate=4191.2kbits/s speed=2.23x    
executeCommand> ErrorStream: frame= 7631 fps=103 q=25.0 size=   84480kB time=00:02:43.62 bitrate=4229.6kbits/s speed=2.21x    
executeCommand> ErrorStream: frame= 7673 fps=103 q=25.0 size=   85248kB time=00:02:43.62 bitrate=4268.1kbits/s speed= 2.2x    
executeCommand> ErrorStream: frame= 7714 fps=103 q=25.0 size=   86016kB time=00:02:43.62 bitrate=4306.5kbits/s speed=2.18x    
executeCommand> ErrorStream: frame= 7762 fps=103 q=25.0 size=   87040kB time=00:02:44.03 bitrate=4346.9kbits/s speed=2.17x    
executeCommand> ErrorStream: frame= 7812 fps=103 q=25.0 size=   88064kB time=00:02:46.20 bitrate=4340.5kbits/s speed=2.19x    
executeCommand> ErrorStream: frame= 7858 fps=103 q=25.0 size=   88576kB time=00:02:46.20 bitrate=4365.7kbits/s speed=2.17x    
executeCommand> ErrorStream: frame= 7895 fps=102 q=25.0 size=   90112kB time=00:02:46.84 bitrate=4424.4kbits/s speed=2.17x    
executeCommand> ErrorStream: frame= 7948 fps=103 q=25.0 size=   91648kB time=00:02:56.00 bitrate=4265.6kbits/s speed=2.27x    
executeCommand> ErrorStream: frame= 8012 fps=103 q=25.0 size=   92160kB time=00:02:56.00 bitrate=4289.4kbits/s speed=2.26x    
executeCommand> ErrorStream: frame= 8056 fps=103 q=25.0 size=   92416kB time=00:02:56.00 bitrate=4301.3kbits/s speed=2.24x    
executeCommand> ErrorStream: frame= 8102 fps=103 q=25.0 size=   92928kB time=00:02:56.00 bitrate=4325.2kbits/s speed=2.23x    
executeCommand> ErrorStream: frame= 8152 fps=102 q=25.0 size=   93696kB time=00:02:56.00 bitrate=4360.9kbits/s speed=2.21x    
executeCommand> ErrorStream: frame= 8206 fps=103 q=25.0 size=   94464kB time=00:02:56.00 bitrate=4396.7kbits/s speed= 2.2x    
executeCommand> ErrorStream: frame= 8259 fps=103 q=25.0 size=   94976kB time=00:02:56.00 bitrate=4420.5kbits/s speed=2.19x    
executeCommand> ErrorStream: frame= 8307 fps=102 q=22.0 size=   95488kB time=00:02:56.00 bitrate=4444.3kbits/s speed=2.17x    
executeCommand> ErrorStream: frame= 8362 fps=103 q=25.0 size=   96512kB time=00:02:56.64 bitrate=4475.9kbits/s speed=2.17x    
executeCommand> ErrorStream: frame= 8414 fps=103 q=25.0 size=   97536kB time=00:02:59.42 bitrate=4453.1kbits/s speed=2.19x    
executeCommand> ErrorStream: frame= 8470 fps=103 q=25.0 size=   98048kB time=00:02:59.42 bitrate=4476.5kbits/s speed=2.17x    
executeCommand> ErrorStream: frame= 8513 fps=102 q=25.0 size=   98560kB time=00:02:59.71 bitrate=4492.8kbits/s speed=2.16x    
executeCommand> ErrorStream: frame= 8564 fps=102 q=25.0 size=   99328kB time=00:03:05.14 bitrate=4395.0kbits/s speed=2.22x    
executeCommand> ErrorStream: frame= 8613 fps=102 q=25.0 size=  100096kB time=00:03:05.14 bitrate=4428.9kbits/s speed= 2.2x    
executeCommand> ErrorStream: frame= 8664 fps=102 q=25.0 size=  100608kB time=00:03:05.14 bitrate=4451.6kbits/s speed=2.19x    
executeCommand> ErrorStream: frame= 8717 fps=102 q=25.0 size=  101120kB time=00:03:05.14 bitrate=4474.3kbits/s speed=2.18x    
executeCommand> ErrorStream: frame= 8776 fps=103 q=25.0 size=  102144kB time=00:03:05.28 bitrate=4516.2kbits/s speed=2.16x    
executeCommand> ErrorStream: frame= 8834 fps=103 q=25.0 size=  102912kB time=00:03:15.44 bitrate=4313.5kbits/s speed=2.27x    
executeCommand> ErrorStream: frame= 8884 fps=103 q=25.0 size=  103424kB time=00:03:15.44 bitrate=4335.0kbits/s speed=2.26x    
executeCommand> ErrorStream: frame= 8930 fps=103 q=25.0 size=  104192kB time=00:03:15.44 bitrate=4367.2kbits/s speed=2.24x    
executeCommand> ErrorStream: frame= 8990 fps=103 q=25.0 size=  105472kB time=00:03:15.44 bitrate=4420.8kbits/s speed=2.23x    
executeCommand> ErrorStream: frame= 9050 fps=103 q=25.0 size=  105984kB time=00:03:15.44 bitrate=4442.3kbits/s speed=2.22x    
executeCommand> ErrorStream: frame= 9112 fps=103 q=25.0 size=  106752kB time=00:03:15.44 bitrate=4474.5kbits/s speed=2.21x    
executeCommand> ErrorStream: frame= 9166 fps=103 q=25.0 size=  107008kB time=00:03:15.44 bitrate=4485.2kbits/s speed=2.19x    
executeCommand> ErrorStream: frame= 9218 fps=103 q=25.0 size=  107520kB time=00:03:15.44 bitrate=4506.7kbits/s speed=2.18x    
executeCommand> ErrorStream: frame= 9277 fps=103 q=25.0 size=  108032kB time=00:03:15.60 bitrate=4524.4kbits/s speed=2.17x    
executeCommand> ErrorStream: frame= 9334 fps=103 q=25.0 size=  108544kB time=00:03:18.94 bitrate=4469.5kbits/s speed= 2.2x    
executeCommand> ErrorStream: frame= 9394 fps=103 q=25.0 size=  109056kB time=00:03:18.94 bitrate=4490.5kbits/s speed=2.18x    
executeCommand> ErrorStream: frame= 9438 fps=103 q=25.0 size=  109568kB time=00:03:18.99 bitrate=4510.5kbits/s speed=2.17x    
executeCommand> ErrorStream: frame= 9480 fps=103 q=25.0 size=  110592kB time=00:03:26.99 bitrate=4376.7kbits/s speed=2.25x    
executeCommand> ErrorStream: frame= 9516 fps=103 q=22.0 size=  111360kB time=00:03:26.99 bitrate=4407.1kbits/s speed=2.23x    
executeCommand> ErrorStream: frame= 9564 fps=103 q=25.0 size=  112896kB time=00:03:26.99 bitrate=4467.9kbits/s speed=2.22x    
executeCommand> ErrorStream: frame= 9608 fps=103 q=25.0 size=  113664kB time=00:03:26.99 bitrate=4498.3kbits/s speed=2.21x    
executeCommand> ErrorStream: frame= 9652 fps=103 q=25.0 size=  114176kB time=00:03:26.99 bitrate=4518.6kbits/s speed= 2.2x    
executeCommand> ErrorStream: frame= 9698 fps=102 q=25.0 size=  114944kB time=00:03:26.99 bitrate=4548.9kbits/s speed=2.19x    
executeCommand> ErrorStream: frame= 9744 fps=102 q=25.0 size=  115712kB time=00:03:26.99 bitrate=4579.3kbits/s speed=2.18x    
executeCommand> ErrorStream: frame= 9779 fps=102 q=25.0 size=  116480kB time=00:03:26.99 bitrate=4609.7kbits/s speed=2.16x    
executeCommand> ErrorStream: frame= 9824 fps=102 q=25.0 size=  117248kB time=00:03:27.06 bitrate=4638.7kbits/s speed=2.15x    
executeCommand> ErrorStream: frame= 9883 fps=102 q=25.0 size=  118016kB time=00:03:29.96 bitrate=4604.6kbits/s speed=2.17x    
executeCommand> ErrorStream: frame= 9934 fps=102 q=25.0 size=  118528kB time=00:03:29.96 bitrate=4624.6kbits/s speed=2.16x    
executeCommand> ErrorStream: frame= 9990 fps=102 q=25.0 size=  119040kB time=00:03:30.51 bitrate=4632.3kbits/s speed=2.16x    
executeCommand> ErrorStream: frame=10044 fps=102 q=25.0 size=  120064kB time=00:03:41.13 bitrate=4447.7kbits/s speed=2.25x    
executeCommand> ErrorStream: frame=10098 fps=102 q=25.0 size=  120576kB time=00:03:41.13 bitrate=4466.7kbits/s speed=2.24x    
executeCommand> ErrorStream: frame=10154 fps=102 q=25.0 size=  121088kB time=00:03:41.13 bitrate=4485.7kbits/s speed=2.23x    
executeCommand> ErrorStream: frame=10204 fps=102 q=25.0 size=  121856kB time=00:03:41.13 bitrate=4514.1kbits/s speed=2.22x    
executeCommand> ErrorStream: frame=10246 fps=102 q=25.0 size=  122624kB time=00:03:41.13 bitrate=4542.6kbits/s speed=2.21x    
executeCommand> ErrorStream: frame=10288 fps=102 q=25.0 size=  123648kB time=00:03:41.13 bitrate=4580.5kbits/s speed= 2.2x    
executeCommand> ErrorStream: frame=10330 fps=102 q=25.0 size=  124672kB time=00:03:41.13 bitrate=4618.4kbits/s speed=2.18x    
executeCommand> ErrorStream: frame=10372 fps=102 q=25.0 size=  125696kB time=00:03:41.13 bitrate=4656.4kbits/s speed=2.17x    
executeCommand> ErrorStream: frame=10426 fps=102 q=22.0 size=  126464kB time=00:03:41.13 bitrate=4684.8kbits/s speed=2.16x    
executeCommand> ErrorStream: frame=10505 fps=102 q=25.0 size=  127488kB time=00:03:41.26 bitrate=4720.0kbits/s speed=2.15x    
executeCommand> ErrorStream: frame=10571 fps=102 q=22.0 size=  128000kB time=00:03:47.26 bitrate=4613.8kbits/s speed= 2.2x    
executeCommand> ErrorStream: frame=10629 fps=102 q=25.0 size=  128768kB time=00:03:47.26 bitrate=4641.5kbits/s speed=2.19x    
executeCommand> ErrorStream: frame=10678 fps=102 q=25.0 size=  129792kB time=00:03:47.26 bitrate=4678.4kbits/s speed=2.18x    
executeCommand> ErrorStream: frame=10726 fps=102 q=25.0 size=  130560kB time=00:03:47.26 bitrate=4706.1kbits/s speed=2.17x    
executeCommand> ErrorStream: frame=10772 fps=102 q=25.0 size=  131584kB time=00:03:47.26 bitrate=4743.0kbits/s speed=2.16x    
executeCommand> ErrorStream: frame=10823 fps=102 q=25.0 size=  132352kB time=00:03:47.84 bitrate=4758.7kbits/s speed=2.15x    
executeCommand> ErrorStream: frame=10884 fps=102 q=25.0 size=  133376kB time=00:03:50.43 bitrate=4741.5kbits/s speed=2.17x    
executeCommand> ErrorStream: frame=10940 fps=102 q=25.0 size=  134144kB time=00:03:50.43 bitrate=4768.8kbits/s speed=2.16x    
executeCommand> ErrorStream: frame=10993 fps=102 q=25.0 size=  134656kB time=00:03:55.86 bitrate=4676.9kbits/s speed= 2.2x    
executeCommand> ErrorStream: frame=11046 fps=102 q=25.0 size=  135424kB time=00:03:55.86 bitrate=4703.6kbits/s speed=2.19x    
executeCommand> ErrorStream: frame=11092 fps=102 q=25.0 size=  136192kB time=00:03:55.86 bitrate=4730.3kbits/s speed=2.18x    
executeCommand> ErrorStream: frame=11142 fps=102 q=25.0 size=  136960kB time=00:03:55.86 bitrate=4756.9kbits/s speed=2.17x    
executeCommand> ErrorStream: frame=11202 fps=102 q=25.0 size=  137728kB time=00:03:55.86 bitrate=4783.6kbits/s speed=2.16x    
executeCommand> ErrorStream: frame=11268 fps=103 q=22.0 size=  138240kB time=00:04:02.11 bitrate=4677.3kbits/s speed= 2.2x    
executeCommand> ErrorStream: frame=11316 fps=102 q=25.0 size=  138752kB time=00:04:02.11 bitrate=4694.7kbits/s speed=2.19x    
executeCommand> ErrorStream: frame=11353 fps=102 q=25.0 size=  139264kB time=00:04:02.11 bitrate=4712.0kbits/s speed=2.18x    
executeCommand> ErrorStream: frame=11394 fps=102 q=25.0 size=  140032kB time=00:04:02.11 bitrate=4738.0kbits/s speed=2.17x    
executeCommand> ErrorStream: frame=11436 fps=102 q=25.0 size=  141056kB time=00:04:02.11 bitrate=4772.6kbits/s speed=2.16x    
executeCommand> ErrorStream: frame=11484 fps=102 q=25.0 size=  141824kB time=00:04:02.11 bitrate=4798.6kbits/s speed=2.15x    
executeCommand> ErrorStream: frame=11544 fps=102 q=25.0 size=  142848kB time=00:04:03.24 bitrate=4810.9kbits/s speed=2.15x    
executeCommand> ErrorStream: frame=11604 fps=102 q=25.0 size=  143360kB time=00:04:09.04 bitrate=4715.7kbits/s speed= 2.2x    
executeCommand> ErrorStream: frame=11667 fps=102 q=25.0 size=  143872kB time=00:04:09.04 bitrate=4732.6kbits/s speed=2.19x    
executeCommand> ErrorStream: frame=11720 fps=102 q=25.0 size=  144640kB time=00:04:09.04 bitrate=4757.8kbits/s speed=2.18x    
executeCommand> ErrorStream: frame=11784 fps=103 q=25.0 size=  145152kB time=00:04:09.04 bitrate=4774.7kbits/s speed=2.17x    
executeCommand> ErrorStream: frame=11842 fps=103 q=25.0 size=  146176kB time=00:04:09.10 bitrate=4807.0kbits/s speed=2.16x    
executeCommand> ErrorStream: frame=11891 fps=103 q=22.0 size=  146432kB time=00:04:14.42 bitrate=4714.9kbits/s speed=2.19x    
executeCommand> ErrorStream: frame=11945 fps=103 q=25.0 size=  147456kB time=00:04:14.42 bitrate=4747.9kbits/s speed=2.18x    
executeCommand> ErrorStream: frame=11992 fps=102 q=25.0 size=  148480kB time=00:04:14.42 bitrate=4780.9kbits/s speed=2.17x    
executeCommand> ErrorStream: frame=12048 fps=103 q=25.0 size=  148992kB time=00:04:14.42 bitrate=4797.3kbits/s speed=2.17x    
executeCommand> ErrorStream: frame=12098 fps=103 q=25.0 size=  149760kB time=00:04:14.46 bitrate=4821.3kbits/s speed=2.16x    
executeCommand> ErrorStream: frame=12152 fps=103 q=25.0 size=  150528kB time=00:04:16.17 bitrate=4813.6kbits/s speed=2.16x    
executeCommand> ErrorStream: frame=12200 fps=103 q=25.0 size=  151040kB time=00:04:16.66 bitrate=4820.8kbits/s speed=2.16x    
executeCommand> ErrorStream: frame=12248 fps=102 q=25.0 size=  151552kB time=00:04:18.71 bitrate=4798.7kbits/s speed=2.16x    
executeCommand> ErrorStream: frame=12282 fps=102 q=25.0 size=  151808kB time=00:04:18.71 bitrate=4806.8kbits/s speed=2.16x    
executeCommand> ErrorStream: frame=12325 fps=102 q=25.0 size=  152576kB time=00:04:19.20 bitrate=4822.2kbits/s speed=2.15x    
executeCommand> ErrorStream: frame=12370 fps=102 q=25.0 size=  153600kB time=00:04:20.09 bitrate=4837.8kbits/s speed=2.15x    
executeCommand> ErrorStream: frame=12411 fps=102 q=25.0 size=  154624kB time=00:04:31.52 bitrate=4665.1kbits/s speed=2.23x    
executeCommand> ErrorStream: frame=12455 fps=102 q=25.0 size=  155136kB time=00:04:31.52 bitrate=4680.6kbits/s speed=2.22x    
executeCommand> ErrorStream: frame=12492 fps=102 q=25.0 size=  155904kB time=00:04:31.52 bitrate=4703.7kbits/s speed=2.22x    
executeCommand> ErrorStream: frame=12536 fps=102 q=25.0 size=  156672kB time=00:04:31.52 bitrate=4726.9kbits/s speed=2.21x    
executeCommand> ErrorStream: frame=12562 fps=102 q=25.0 size=  157440kB time=00:04:31.52 bitrate=4750.1kbits/s speed= 2.2x    
executeCommand> ErrorStream: frame=12606 fps=102 q=25.0 size=  159488kB time=00:04:31.52 bitrate=4811.9kbits/s speed=2.19x    
executeCommand> ErrorStream: frame=12642 fps=101 q=25.0 size=  160768kB time=00:04:31.52 bitrate=4850.5kbits/s speed=2.18x    
executeCommand> ErrorStream: frame=12682 fps=101 q=25.0 size=  161536kB time=00:04:31.52 bitrate=4873.7kbits/s speed=2.17x    
executeCommand> ErrorStream: frame=12734 fps=101 q=25.0 size=  162304kB time=00:04:31.52 bitrate=4896.8kbits/s speed=2.16x    
executeCommand> ErrorStream: frame=12794 fps=101 q=25.0 size=  162816kB time=00:04:31.52 bitrate=4912.3kbits/s speed=2.15x    
executeCommand> ErrorStream: frame=12852 fps=102 q=25.0 size=  163584kB time=00:04:31.52 bitrate=4935.5kbits/s speed=2.14x    
executeCommand> ErrorStream: frame=12908 fps=102 q=25.0 size=  164352kB time=00:04:31.52 bitrate=4958.6kbits/s speed=2.14x    
executeCommand> ErrorStream: frame=12959 fps=102 q=25.0 size=  165376kB time=00:04:33.02 bitrate=4962.1kbits/s speed=2.14x    
executeCommand> ErrorStream: frame=13010 fps=102 q=25.0 size=  165888kB time=00:04:33.53 bitrate=4968.1kbits/s speed=2.14x    
executeCommand> ErrorStream: frame=13062 fps=102 q=25.0 size=  166656kB time=00:04:38.94 bitrate=4894.3kbits/s speed=2.17x    
executeCommand> ErrorStream: frame=13115 fps=102 q=25.0 size=  167680kB time=00:04:38.94 bitrate=4924.4kbits/s speed=2.16x    
executeCommand> ErrorStream: frame=13158 fps=102 q=25.0 size=  168448kB time=00:04:38.94 bitrate=4947.0kbits/s speed=2.15x    
executeCommand> ErrorStream: frame=13222 fps=102 q=25.0 size=  169472kB time=00:04:38.94 bitrate=4977.0kbits/s speed=2.14x    
executeCommand> ErrorStream: frame=13288 fps=102 q=25.0 size=  169984kB time=00:04:39.36 bitrate=4984.6kbits/s speed=2.14x    
executeCommand> ErrorStream: frame=13342 fps=102 q=25.0 size=  171008kB time=00:04:44.20 bitrate=4929.3kbits/s speed=2.17x    
executeCommand> ErrorStream: frame=13378 fps=102 q=25.0 size=  172032kB time=00:04:44.20 bitrate=4958.8kbits/s speed=2.16x    
executeCommand> ErrorStream: frame=13412 fps=102 q=25.0 size=  173312kB time=00:04:44.20 bitrate=4995.7kbits/s speed=2.15x    
executeCommand> ErrorStream: frame=13447 fps=101 q=25.0 size=  174848kB time=00:04:44.20 bitrate=5039.9kbits/s speed=2.14x    
executeCommand> ErrorStream: frame=13479 fps=101 q=25.0 size=  176128kB time=00:04:44.20 bitrate=5076.8kbits/s speed=2.13x    
executeCommand> ErrorStream: frame=13515 fps=101 q=25.0 size=  177152kB time=00:04:44.20 bitrate=5106.4kbits/s speed=2.13x    
executeCommand> ErrorStream: frame=13553 fps=101 q=25.0 size=  178176kB time=00:04:44.86 bitrate=5123.9kbits/s speed=2.12x    
executeCommand> ErrorStream: frame=13600 fps=101 q=25.0 size=  179712kB time=00:05:04.76 bitrate=4830.6kbits/s speed=2.26x    
executeCommand> ErrorStream: frame=13641 fps=101 q=25.0 size=  180480kB time=00:05:04.76 bitrate=4851.3kbits/s speed=2.25x    
executeCommand> ErrorStream: frame=13698 fps=101 q=25.0 size=  181504kB time=00:05:04.76 bitrate=4878.8kbits/s speed=2.25x    
executeCommand> ErrorStream: frame=13768 fps=101 q=25.0 size=  182272kB time=00:05:04.76 bitrate=4899.5kbits/s speed=2.24x    
executeCommand> ErrorStream: frame=13842 fps=101 q=25.0 size=  182784kB time=00:05:04.76 bitrate=4913.2kbits/s speed=2.23x    
executeCommand> ErrorStream: frame=13902 fps=101 q=25.0 size=  183296kB time=00:05:04.76 bitrate=4927.0kbits/s speed=2.22x    
executeCommand> ErrorStream: frame=13948 fps=101 q=25.0 size=  183808kB time=00:05:04.76 bitrate=4940.7kbits/s speed=2.21x    
executeCommand> ErrorStream: frame=13992 fps=101 q=25.0 size=  184064kB time=00:05:04.76 bitrate=4947.6kbits/s speed= 2.2x    
executeCommand> ErrorStream: frame=14041 fps=101 q=25.0 size=  184576kB time=00:05:04.76 bitrate=4961.4kbits/s speed= 2.2x    
executeCommand> ErrorStream: frame=14090 fps=101 q=25.0 size=  185088kB time=00:05:04.76 bitrate=4975.2kbits/s speed=2.19x    
executeCommand> ErrorStream: frame=14134 fps=101 q=25.0 size=  185600kB time=00:05:04.76 bitrate=4988.9kbits/s speed=2.18x    
executeCommand> ErrorStream: frame=14182 fps=101 q=25.0 size=  186368kB time=00:05:04.76 bitrate=5009.6kbits/s speed=2.17x    
executeCommand> ErrorStream: frame=14230 fps=101 q=25.0 size=  186880kB time=00:05:04.76 bitrate=5023.3kbits/s speed=2.17x    
executeCommand> ErrorStream: frame=14282 fps=101 q=25.0 size=  187392kB time=00:05:04.76 bitrate=5037.1kbits/s speed=2.16x    
executeCommand> ErrorStream: frame=14332 fps=101 q=25.0 size=  187904kB time=00:05:04.76 bitrate=5050.8kbits/s speed=2.15x    
executeCommand> ErrorStream: frame=14380 fps=101 q=25.0 size=  188672kB time=00:05:04.76 bitrate=5071.5kbits/s speed=2.14x    
executeCommand> ErrorStream: frame=14435 fps=101 q=25.0 size=  189184kB time=00:05:04.76 bitrate=5085.3kbits/s speed=2.13x    
executeCommand> ErrorStream: frame=14478 fps=101 q=25.0 size=  189952kB time=00:05:04.76 bitrate=5105.9kbits/s speed=2.13x    
executeCommand> ErrorStream: frame=14528 fps=101 q=25.0 size=  190464kB time=00:05:05.10 bitrate=5113.8kbits/s speed=2.12x    
executeCommand> ErrorStream: frame=14584 fps=101 q=25.0 size=  191232kB time=00:05:08.68 bitrate=5075.0kbits/s speed=2.14x    
executeCommand> ErrorStream: frame=14648 fps=101 q=25.0 size=  192000kB time=00:05:08.68 bitrate=5095.4kbits/s speed=2.13x    
executeCommand> ErrorStream: frame=14714 fps=101 q=25.0 size=  192768kB time=00:05:09.05 bitrate=5109.6kbits/s speed=2.13x    
executeCommand> ErrorStream: frame=14774 fps=101 q=25.0 size=  193536kB time=00:05:36.12 bitrate=4716.8kbits/s speed=2.31x    
executeCommand> ErrorStream: frame=14835 fps=101 q=25.0 size=  194304kB time=00:05:36.12 bitrate=4735.5kbits/s speed= 2.3x    
executeCommand> ErrorStream: frame=14890 fps=101 q=25.0 size=  195072kB time=00:05:36.12 bitrate=4754.2kbits/s speed=2.29x    
executeCommand> ErrorStream: frame=14938 fps=101 q=25.0 size=  195584kB time=00:05:36.12 bitrate=4766.7kbits/s speed=2.28x    
executeCommand> ErrorStream: frame=14989 fps=101 q=25.0 size=  196096kB time=00:05:36.12 bitrate=4779.2kbits/s speed=2.27x    
executeCommand> ErrorStream: frame=15034 fps=101 q=25.0 size=  196864kB time=00:05:36.12 bitrate=4797.9kbits/s speed=2.27x    
executeCommand> ErrorStream: frame=15071 fps=101 q=22.0 size=  197376kB time=00:05:36.12 bitrate=4810.4kbits/s speed=2.26x    
executeCommand> ErrorStream: frame=15122 fps=101 q=25.0 size=  198144kB time=00:05:36.12 bitrate=4829.1kbits/s speed=2.25x    
executeCommand> ErrorStream: frame=15168 fps=101 q=25.0 size=  198656kB time=00:05:36.12 bitrate=4841.6kbits/s speed=2.24x    
executeCommand> ErrorStream: frame=15210 fps=101 q=25.0 size=  199168kB time=00:05:36.12 bitrate=4854.1kbits/s speed=2.24x    
executeCommand> ErrorStream: frame=15260 fps=101 q=25.0 size=  199936kB time=00:05:36.12 bitrate=4872.8kbits/s speed=2.23x    
executeCommand> ErrorStream: frame=15310 fps=101 q=25.0 size=  200448kB time=00:05:36.12 bitrate=4885.3kbits/s speed=2.22x    
executeCommand> ErrorStream: frame=15356 fps=101 q=25.0 size=  200960kB time=00:05:36.12 bitrate=4897.7kbits/s speed=2.21x    
executeCommand> ErrorStream: frame=15401 fps=101 q=25.0 size=  201984kB time=00:05:36.12 bitrate=4922.7kbits/s speed=2.21x    
executeCommand> ErrorStream: frame=15447 fps=101 q=25.0 size=  203008kB time=00:05:36.12 bitrate=4947.7kbits/s speed= 2.2x    
executeCommand> ErrorStream: frame=15490 fps=101 q=22.0 size=  204544kB time=00:05:36.12 bitrate=4985.1kbits/s speed=2.19x    
executeCommand> ErrorStream: frame=15542 fps=101 q=25.0 size=  205824kB time=00:05:36.12 bitrate=5016.3kbits/s speed=2.18x    
executeCommand> ErrorStream: frame=15598 fps=101 q=25.0 size=  206336kB time=00:05:36.12 bitrate=5028.8kbits/s speed=2.18x    
executeCommand> ErrorStream: frame=15654 fps=101 q=25.0 size=  207104kB time=00:05:36.12 bitrate=5047.5kbits/s speed=2.17x    
executeCommand> ErrorStream: frame=15700 fps=101 q=25.0 size=  208384kB time=00:05:36.12 bitrate=5078.7kbits/s speed=2.16x    
executeCommand> ErrorStream: frame=15734 fps=101 q=25.0 size=  209152kB time=00:05:36.12 bitrate=5097.4kbits/s speed=2.15x    
executeCommand> ErrorStream: frame=15774 fps=101 q=25.0 size=  210176kB time=00:05:36.12 bitrate=5122.4kbits/s speed=2.15x    
executeCommand> ErrorStream: frame=15824 fps=101 q=25.0 size=  210944kB time=00:05:36.12 bitrate=5141.1kbits/s speed=2.14x    
executeCommand> ErrorStream: frame=15872 fps=101 q=25.0 size=  211456kB time=00:05:36.12 bitrate=5153.6kbits/s speed=2.13x    
executeCommand> ErrorStream: frame=15922 fps=101 q=25.0 size=  212224kB time=00:05:36.12 bitrate=5172.3kbits/s speed=2.13x    
executeCommand> ErrorStream: frame=15974 fps=101 q=25.0 size=  212992kB time=00:05:36.12 bitrate=5191.0kbits/s speed=2.12x    
executeCommand> ErrorStream: frame=16023 fps=101 q=25.0 size=  213760kB time=00:05:36.27 bitrate=5207.4kbits/s speed=2.11x    
executeCommand> ErrorStream: frame=16070 fps=101 q=25.0 size=  214784kB time=00:05:37.50 bitrate=5213.3kbits/s speed=2.12x    
executeCommand> ErrorStream: frame=16116 fps=101 q=25.0 size=  215808kB time=00:05:38.24 bitrate=5226.8kbits/s speed=2.11x    
executeCommand> ErrorStream: frame=16162 fps=101 q=25.0 size=  218112kB time=00:05:40.09 bitrate=5253.8kbits/s speed=2.12x    
executeCommand> ErrorStream: frame=16212 fps=101 q=25.0 size=  219392kB time=00:05:40.30 bitrate=5281.3kbits/s speed=2.11x    
executeCommand> ErrorStream: frame=16262 fps=101 q=25.0 size=  219904kB time=00:05:41.34 bitrate=5277.6kbits/s speed=2.11x    
executeCommand> ErrorStream: frame=16314 fps=101 q=25.0 size=  220416kB time=00:05:42.50 bitrate=5271.8kbits/s speed=2.11x    
executeCommand> ErrorStream: frame=16366 fps=101 q=25.0 size=  221440kB time=00:06:02.94 bitrate=4998.1kbits/s speed=2.23x    
executeCommand> ErrorStream: frame=16414 fps=101 q=25.0 size=  222464kB time=00:06:02.94 bitrate=5021.2kbits/s speed=2.23x    
executeCommand> ErrorStream: frame=16464 fps=101 q=25.0 size=  223232kB time=00:06:02.94 bitrate=5038.5kbits/s speed=2.22x    
executeCommand> ErrorStream: frame=16526 fps=101 q=25.0 size=  224256kB time=00:06:02.94 bitrate=5061.7kbits/s speed=2.21x    
executeCommand> ErrorStream: frame=16577 fps=101 q=25.0 size=  225024kB time=00:06:02.94 bitrate=5079.0kbits/s speed= 2.2x    
executeCommand> ErrorStream: frame=16620 fps=101 q=25.0 size=  226048kB time=00:06:02.94 bitrate=5102.1kbits/s speed= 2.2x    
executeCommand> ErrorStream: frame=16662 fps=101 q=25.0 size=  227072kB time=00:06:02.94 bitrate=5125.2kbits/s speed=2.19x    
executeCommand> ErrorStream: frame=16704 fps=101 q=25.0 size=  228096kB time=00:06:02.94 bitrate=5148.3kbits/s speed=2.18x    
executeCommand> ErrorStream: frame=16734 fps=100 q=25.0 size=  228864kB time=00:06:02.94 bitrate=5165.7kbits/s speed=2.18x    
executeCommand> ErrorStream: frame=16782 fps=100 q=25.0 size=  230144kB time=00:06:02.94 bitrate=5194.5kbits/s speed=2.17x    
executeCommand> ErrorStream: frame=16836 fps=100 q=25.0 size=  230912kB time=00:06:02.94 bitrate=5211.9kbits/s speed=2.16x    
executeCommand> ErrorStream: frame=16884 fps=100 q=25.0 size=  231424kB time=00:06:02.94 bitrate=5223.4kbits/s speed=2.16x    
executeCommand> ErrorStream: frame=16932 fps=100 q=25.0 size=  232704kB time=00:06:02.94 bitrate=5252.3kbits/s speed=2.15x    
executeCommand> ErrorStream: frame=16980 fps=100 q=25.0 size=  233728kB time=00:06:02.94 bitrate=5275.4kbits/s speed=2.15x    
executeCommand> ErrorStream: frame=17025 fps=100 q=25.0 size=  234752kB time=00:06:02.94 bitrate=5298.6kbits/s speed=2.14x    
executeCommand> ErrorStream: frame=17070 fps=100 q=25.0 size=  236032kB time=00:06:02.94 bitrate=5327.4kbits/s speed=2.13x    
executeCommand> ErrorStream: frame=17120 fps=100 q=25.0 size=  236800kB time=00:06:02.94 bitrate=5344.8kbits/s speed=2.13x    
executeCommand> ErrorStream: frame=17162 fps=100 q=25.0 size=  237824kB time=00:06:02.94 bitrate=5367.9kbits/s speed=2.12x    
executeCommand> ErrorStream: frame=17207 fps=100 q=25.0 size=  238336kB time=00:06:02.94 bitrate=5379.4kbits/s speed=2.11x    
executeCommand> ErrorStream: frame=17262 fps=100 q=25.0 size=  238848kB time=00:06:02.94 bitrate=5391.0kbits/s speed=2.11x    
executeCommand> ErrorStream: frame=17320 fps=100 q=25.0 size=  239360kB time=00:06:03.41 bitrate=5395.6kbits/s speed= 2.1x    
executeCommand> ErrorStream: frame=17372 fps=100 q=25.0 size=  239872kB time=00:06:04.50 bitrate=5391.0kbits/s speed= 2.1x    
executeCommand> ErrorStream: frame=17419 fps=100 q=25.0 size=  240384kB time=00:06:09.61 bitrate=5327.7kbits/s speed=2.13x    
executeCommand> ErrorStream: frame=17466 fps=100 q=25.0 size=  240896kB time=00:06:09.61 bitrate=5339.1kbits/s speed=2.12x    
executeCommand> ErrorStream: frame=17511 fps=100 q=25.0 size=  241664kB time=00:06:09.61 bitrate=5356.1kbits/s speed=2.12x    
executeCommand> ErrorStream: frame=17556 fps=100 q=25.0 size=  242432kB time=00:06:09.61 bitrate=5373.1kbits/s speed=2.11x    
executeCommand> ErrorStream: frame=17604 fps=100 q=25.0 size=  242944kB time=00:06:09.61 bitrate=5384.5kbits/s speed= 2.1x    
executeCommand> ErrorStream: frame=17658 fps=100 q=25.0 size=  243712kB time=00:06:10.43 bitrate=5389.6kbits/s speed= 2.1x    
executeCommand> ErrorStream: frame=17716 fps=100 q=25.0 size=  244224kB time=00:06:11.64 bitrate=5383.3kbits/s speed= 2.1x    
executeCommand> ErrorStream: frame=17765 fps=100 q=25.0 size=  244224kB time=00:06:12.69 bitrate=5368.2kbits/s speed= 2.1x    
executeCommand> ErrorStream: frame=17824 fps=100 q=25.0 size=  244224kB time=00:06:13.90 bitrate=5350.7kbits/s speed= 2.1x    
executeCommand> ErrorStream: frame=17874 fps=100 q=25.0 size=  244224kB time=00:06:14.97 bitrate=5335.5kbits/s speed= 2.1x    
executeCommand> ErrorStream: frame=17912 fps=100 q=25.0 size=  244224kB time=00:06:15.74 bitrate=5324.6kbits/s speed= 2.1x    
executeCommand> ErrorStream: frame=17954 fps=100 q=25.0 size=  244224kB time=00:06:16.70 bitrate=5311.0kbits/s speed= 2.1x    
executeCommand> ErrorStream: frame=18009 fps=100 q=25.0 size=  244224kB time=00:06:17.79 bitrate=5295.7kbits/s speed= 2.1x    
executeCommand> ErrorStream: frame=18056 fps=100 q=25.0 size=  244224kB time=00:06:18.81 bitrate=5281.4kbits/s speed= 2.1x    
executeCommand> ErrorStream: frame=18129 fps=100 q=25.0 size=  244480kB time=00:06:20.18 bitrate=5268.0kbits/s speed= 2.1x    
executeCommand> ErrorStream: frame=18194 fps=100 q=25.0 size=  245504kB time=00:06:21.69 bitrate=5269.0kbits/s speed=2.11x    
executeCommand> ErrorStream: frame=18248 fps=100 q=25.0 size=  245760kB time=00:06:22.74 bitrate=5260.1kbits/s speed=2.11x    
executeCommand> ErrorStream: frame=18313 fps=100 q=22.0 size=  246272kB time=00:06:24.06 bitrate=5252.9kbits/s speed=2.11x    
executeCommand> ErrorStream: frame=18370 fps=100 q=25.0 size=  246784kB time=00:06:25.28 bitrate=5247.2kbits/s speed=2.11x    
executeCommand> ErrorStream: frame=18440 fps=101 q=25.0 size=  247552kB time=00:06:26.77 bitrate=5243.2kbits/s speed=2.11x    
executeCommand> ErrorStream: frame=18510 fps=101 q=25.0 size=  248064kB time=00:06:28.28 bitrate=5233.6kbits/s speed=2.11x    
executeCommand> ErrorStream: frame=18580 fps=101 q=25.0 size=  248576kB time=00:06:29.71 bitrate=5225.2kbits/s speed=2.11x    
executeCommand> ErrorStream: frame=18648 fps=101 q=25.0 size=  249088kB time=00:06:31.10 bitrate=5217.4kbits/s speed=2.12x    
executeCommand> ErrorStream: frame=18713 fps=101 q=25.0 size=  249344kB time=00:06:32.38 bitrate=5205.7kbits/s speed=2.12x    
executeCommand> ErrorStream: frame=18788 fps=101 q=25.0 size=  250880kB time=00:06:34.00 bitrate=5216.2kbits/s speed=2.12x    
executeCommand> ErrorStream: frame=18854 fps=101 q=25.0 size=  251392kB time=00:06:35.32 bitrate=5209.4kbits/s speed=2.12x    
executeCommand> ErrorStream: frame=18931 fps=101 q=25.0 size=  252160kB time=00:06:36.92 bitrate=5204.2kbits/s speed=2.12x    
executeCommand> ErrorStream: frame=18990 fps=101 q=25.0 size=  253440kB time=00:06:38.29 bitrate=5212.7kbits/s speed=2.13x    
executeCommand> ErrorStream: frame=19065 fps=101 q=25.0 size=  253952kB time=00:06:39.76 bitrate=5204.0kbits/s speed=2.13x    
executeCommand> ErrorStream: frame=19123 fps=102 q=25.0 size=  254720kB time=00:06:41.02 bitrate=5203.3kbits/s speed=2.13x    
executeCommand> ErrorStream: frame=19202 fps=102 q=25.0 size=  255232kB time=00:06:42.62 bitrate=5193.1kbits/s speed=2.13x    
executeCommand> ErrorStream: frame=19262 fps=102 q=25.0 size=  256512kB time=00:06:43.84 bitrate=5203.4kbits/s speed=2.13x    
executeCommand> ErrorStream: frame=19324 fps=102 q=25.0 size=  257024kB time=00:06:45.20 bitrate=5196.2kbits/s speed=2.13x    
executeCommand> ErrorStream: frame=19398 fps=102 q=25.0 size=  258048kB time=00:06:46.72 bitrate=5197.5kbits/s speed=2.14x    
executeCommand> ErrorStream: frame=19459 fps=102 q=25.0 size=  258560kB time=00:06:47.93 bitrate=5192.3kbits/s speed=2.14x    
executeCommand> ErrorStream: frame=19530 fps=102 q=25.0 size=  260096kB time=00:06:49.42 bitrate=5204.1kbits/s speed=2.14x    
executeCommand> ErrorStream: frame=19590 fps=102 q=25.0 size=  260352kB time=00:06:50.75 bitrate=5192.4kbits/s speed=2.14x    
executeCommand> ErrorStream: frame=19664 fps=102 q=25.0 size=  261376kB time=00:06:52.30 bitrate=5193.2kbits/s speed=2.14x    
executeCommand> ErrorStream: frame=19730 fps=102 q=25.0 size=  262400kB time=00:06:53.58 bitrate=5197.4kbits/s speed=2.14x    
executeCommand> ErrorStream: frame=19788 fps=102 q=25.0 size=  263168kB time=00:06:54.84 bitrate=5196.8kbits/s speed=2.14x    
executeCommand> ErrorStream: frame=19848 fps=102 q=25.0 size=  263936kB time=00:06:56.06 bitrate=5196.7kbits/s speed=2.15x    
executeCommand> ErrorStream: [mp4 @ 0000017116a83440] Starting second pass: moving the moov atom to the beginning of the file
executeCommand> ErrorStream: frame=19998 fps=103 q=-1.0 Lsize=  268769kB time=00:06:57.06 bitrate=5279.1kbits/s speed=2.14x    
executeCommand> ErrorStream: video:234473kB audio:33526kB subtitle:1kB other streams:0kB global headers:0kB muxing overhead: 0.286828%
executeCommand> ErrorStream: [libx264 @ 00000171168a35c0] frame I:154   Avg QP:11.10  size:131506
executeCommand> ErrorStream: [libx264 @ 00000171168a35c0] frame P:5194  Avg QP:15.55  size: 27736
executeCommand> ErrorStream: [libx264 @ 00000171168a35c0] frame B:14650 Avg QP:18.79  size:  5173
executeCommand> ErrorStream: [libx264 @ 00000171168a35c0] consecutive B-frames:  1.3%  2.7%  1.0% 95.0%
executeCommand> ErrorStream: [libx264 @ 00000171168a35c0] mb I  I16..4: 38.2% 45.7% 16.1%
executeCommand> ErrorStream: [libx264 @ 00000171168a35c0] mb P  I16..4:  1.7%  3.0%  0.6%  P16..4: 31.3% 10.1%  6.3%  0.0%  0.0%    skip:47.0%
executeCommand> ErrorStream: [libx264 @ 00000171168a35c0] mb B  I16..4:  0.1%  0.1%  0.0%  B16..8: 24.5%  1.1%  0.2%  direct: 0.8%  skip:73.1%  L0:50.8% L1:46.2% BI: 3.0%
executeCommand> ErrorStream: [libx264 @ 00000171168a35c0] 8x8 transform intra:52.3% inter:80.4%
executeCommand> ErrorStream: [libx264 @ 00000171168a35c0] coded y,uvDC,uvAC intra: 48.8% 65.9% 42.1% inter: 7.6% 10.4% 1.5%
executeCommand> ErrorStream: [libx264 @ 00000171168a35c0] i16 v,h,dc,p: 50% 26%  5% 20%
executeCommand> ErrorStream: [libx264 @ 00000171168a35c0] i8 v,h,dc,ddl,ddr,vr,hd,vl,hu: 17% 19% 25%  5%  7%  7%  7%  6%  7%
executeCommand> ErrorStream: [libx264 @ 00000171168a35c0] i4 v,h,dc,ddl,ddr,vr,hd,vl,hu: 23% 22% 15%  5%  9%  8%  7%  5%  5%
executeCommand> ErrorStream: [libx264 @ 00000171168a35c0] i8c dc,h,v,p: 50% 26% 13% 11%
executeCommand> ErrorStream: [libx264 @ 00000171168a35c0] Weighted P-Frames: Y:4.4% UV:2.8%
executeCommand> ErrorStream: [libx264 @ 00000171168a35c0] ref P L0: 61.5%  7.3% 22.1%  8.9%  0.2%
executeCommand> ErrorStream: [libx264 @ 00000171168a35c0] ref B L0: 86.9% 10.4%  2.7%
executeCommand> ErrorStream: [libx264 @ 00000171168a35c0] ref B L1: 91.4%  8.6%
executeCommand> ErrorStream: [libx264 @ 00000171168a35c0] kb/s:4605.77
executeCommand> ErrorStream: [aac @ 0000017116839880] Qavg: 911.303
executeCommand> ErrorStream: [aac @ 000001711683a480] Qavg: 504.076
executeCommand> ErrorStream: [aac @ 0000017116838080] Qavg: 550.114
transcodeFile> Elapsed time to transcode La Lune-short.mkv: 194.76 seconds, 3.25 minutes, or 123.65 seconds per GB
setTranscodeStatus(.complete)> Touching file: D:\Temp\Brave\La Lune-short.complete
setTranscodeStatus(.complete)> Touching file: D:\Temp\La Lune-short.complete
ExecThread> Shutting down after executing 0 command(s)
ExecThread> Shutting down after executing 0 command(s)
transcodeFile> Total elapsed time: 195.08 seconds, 3.25 minutes
